<svg width="231" height="261" viewBox="0 0 231 261" fill="none" xmlns="http://www.w3.org/2000/svg">
<mask id="mask0_8_4" style="mask-type:luminance" maskUnits="userSpaceOnUse" x="81" y="0" width="261" height="298">
<path d="M81.7334 0.679901H341.08V297.325H81.7334V0.679901Z" fill="white"/>
</mask>
<g mask="url(#mask0_8_4)">
<g opacity="0.649994">
<path d="M145.115 186.984C146.389 189.593 141.645 211.724 158.767 242.6C161.861 248.177 165.555 254.213 169.062 259.545C169.213 259.774 172.355 262.104 172.478 262.285C175.713 267.109 177.979 272.33 180.774 277.381L178.911 277.2C175.803 265.766 168.769 261.756 165.841 257.125C159.433 246.988 154.561 236.353 148.666 225.973C146.171 212.853 137.917 199.517 144.727 186.344C144.867 186.534 145.011 186.772 145.115 186.984Z" fill="#DEEDDC"/>
<path d="M254.157 88.3455C252.928 89.8069 250.473 93.9655 249.317 94.7882C247.148 96.3322 234.882 100.908 230.497 102.72C231.258 100.755 229.786 98.7602 231.614 95.9122C231.821 95.5909 236.141 91.8149 237.232 90.7482C237.434 90.5509 242.205 88.6829 242.417 88.4749C243.184 87.7189 250.406 73.6082 257.614 75.3016C258.31 81.1336 244.144 97.0415 254.157 88.3455Z" fill="#2D8587"/>
<path d="M249.317 94.7882C251.911 95.5882 248.631 98.9762 247.422 100.316C240.333 102.172 232.887 111.581 226.571 112.108C227.995 108.908 229.231 105.985 230.497 102.719C234.882 100.908 247.147 96.3322 249.317 94.7882Z" fill="#BDD9CB"/>
<path d="M247.422 100.316C243.923 104.194 232.219 114.646 227.485 115.055C227.289 115.072 226.863 115.618 226.457 114.804C225.417 113.72 226.111 113.14 226.571 112.108C232.886 111.58 240.333 102.172 247.422 100.316Z" fill="#65968B"/>
<path d="M202.577 159.078C208.673 169.127 213.836 179.823 218.279 190.686C217.067 195.18 223.521 206.006 224.875 211.63C225.821 215.568 224.239 218.584 226.088 222.274C221.713 226.614 230.537 247.687 221.513 242.124C221.115 240.264 220.639 239.37 220.599 239.179C224.975 235.691 222.709 223.302 217.807 221.614C212.411 198.598 207.539 192.179 196.231 171.688C199.723 167.999 199.685 163.75 199.905 163.327C200.575 162.043 199.703 161.795 199.768 161.659C199.852 161.488 201.157 162.118 202.577 159.078Z" fill="#00493A"/>
<path d="M218.278 190.686C220.234 195.469 221.114 200.705 224.324 204.961C228.769 226.462 236.7 241.672 229.4 264.473C223.54 270.142 225.812 257.449 224.977 253.59C224.848 252.992 223.746 252.554 221.513 242.125C230.537 247.686 221.713 226.614 226.088 222.274C224.238 218.584 225.821 215.569 224.874 211.63C223.521 206.006 217.066 195.18 218.278 190.686Z" fill="#007E8A"/>
<path d="M220.599 239.179C218.77 230.424 218.224 223.389 217.807 221.615C222.71 223.301 224.975 235.692 220.599 239.179Z" fill="#00524D"/>
<path d="M120.211 161.842C120.428 162.031 122.867 163.462 123.044 163.623C131.594 171.357 117.922 162.394 98.4723 187.305C94.8497 191.945 88.567 198.657 93.3603 202.667C86.8243 208.793 93.6443 211.295 84.4563 216.831C83.5497 215.339 82.643 213.849 81.7363 212.355C87.9017 192.374 102.342 172.469 120.211 161.842Z" fill="#00524D"/>
<path d="M119.303 183.405C119.077 183.721 118.765 187.483 116.199 190.543C113.63 193.609 109.026 196.898 105.923 200.289C104.331 197.891 92.4325 205.914 93.5792 207.35C98.5272 208.023 100.81 199.686 104.393 202.094C101.15 205.57 98.5472 210.162 93.8659 212.866C96.6525 212.049 96.6525 212.049 99.4392 211.231C95.1472 214.518 91.4005 217.825 86.0099 219.39C85.4925 218.537 84.9739 217.685 84.4565 216.831C93.6432 211.295 86.8245 208.793 93.3605 202.667C98.0885 198.237 99.5365 199.878 99.8232 199.617C106.279 193.749 110.534 186.355 119.303 183.405Z" fill="#007070"/>
<path d="M135.905 168.941C142.801 173.326 126.476 169.538 126.063 175.796C125.679 181.61 142.201 182.933 144.727 186.344C137.917 199.517 146.172 212.853 148.667 225.973C149.063 228.054 149.505 230.169 149.856 232.254C148.017 236.373 148.107 232.893 145.129 236.002C142.443 228.634 141.231 246.88 141.227 249.753L139.308 250.92C139.107 249 139.156 245.857 138.759 244.249C141.048 245.202 139.073 236.202 138.573 233.857C141.393 229.418 137.387 197.754 135.993 196.465C134.264 194.865 129.956 197.684 129.38 195.668C132.059 188.65 135.227 185.373 135.031 184.793C128.441 181.169 129.876 185.029 123.577 190.438C122.052 188.17 130.793 183.778 129.364 181.232C124.295 180.198 121.983 179.676 119.303 183.405C110.533 186.354 106.28 193.749 99.8239 199.616C99.5359 199.877 98.0879 198.237 93.3599 202.668C88.5666 198.656 94.8506 191.945 98.4732 187.305C117.923 162.394 131.593 171.357 123.044 163.622C126.089 165.513 135.319 168.568 135.905 168.941Z" fill="#003337"/>
<path d="M123.577 190.439C115.895 197.035 107.235 205.263 99.4393 211.232C96.6526 212.049 96.6526 212.049 93.866 212.867C98.5473 210.161 101.15 205.571 104.393 202.093C104.973 201.471 105.389 200.872 105.923 200.288C109.025 196.899 113.63 193.608 116.199 190.544C118.765 187.483 119.077 183.721 119.303 183.404C121.982 179.676 124.294 180.197 129.365 181.232C130.793 183.779 122.053 188.171 123.577 190.439Z" fill="#00524D"/>
<path d="M105.923 200.288C105.388 200.872 104.973 201.471 104.393 202.094C100.811 199.686 98.5267 208.023 93.5787 207.35C92.432 205.914 104.332 197.891 105.923 200.288Z" fill="#00969D"/>
<path d="M229.235 83.3501C226.618 83.0541 227.746 80.9274 227.682 80.7928C232.145 76.6621 224.863 68.7621 222.307 60.4194C220.021 52.9528 216.886 39.8381 220.359 32.7128C220.709 34.7434 222.449 44.2408 224.838 42.2474C223.958 31.8128 228.302 3.93277 224.051 4.20477C224.195 3.96343 224.135 -0.3619 227.305 0.915436C235.278 8.16477 233.421 16.2448 233.682 17.1768C233.937 18.0768 236.723 20.6688 237.591 27.9341C238.506 35.5888 233.483 44.5234 233.325 45.4088C233.266 45.7381 234.325 49.5354 233.875 52.0781C231.55 65.2394 228.565 66.8048 228.443 67.6354C228.354 68.2408 230.438 75.7608 230.434 79.5581C230.431 80.8528 229.229 83.1514 229.235 83.3501Z" fill="#005260"/>
<path d="M224.051 4.20494C228.302 3.93294 223.958 31.8129 224.838 42.2476C222.449 44.2409 220.709 34.7436 220.359 32.7129C219.133 25.5969 222.033 19.0103 217.09 21.5663C218.199 17.2623 221.817 7.95961 224.051 4.20494Z" fill="#007070"/>
<path d="M220.359 32.7124C216.886 39.8377 220.022 52.9524 222.308 60.4191C221.654 59.3257 218.468 56.9404 218.31 56.7191C213.859 50.5084 214.616 33.3604 216.086 25.6777C216.375 24.1657 216.714 23.0244 217.09 21.5671C222.032 19.0111 219.132 25.5964 220.359 32.7124Z" fill="#007070"/>
<path d="M216.085 25.6784C214.616 33.3598 213.859 50.5091 218.309 56.7198C218.059 57.7478 218.059 57.7478 217.808 58.7758C216.024 55.8398 215.013 53.7464 211.867 51.8784C217.813 51.9971 208.413 38.3024 216.085 25.6784Z" fill="#004254"/>
<path d="M222.308 60.4189C224.864 68.7629 232.144 76.6616 227.681 80.7922C224.268 73.5896 224.031 67.1362 218.973 60.6936C218.391 59.7349 218.391 59.7349 217.808 58.7749C218.059 57.7482 218.059 57.7482 218.309 56.7202C218.468 56.9416 221.653 59.3256 222.308 60.4189Z" fill="#202F55"/>
<path d="M233.791 118.228C239.607 120.039 248.981 123.323 255.057 123.694C263.663 124.218 261.571 122.9 263.715 122.811C264.727 122.768 267.784 121.978 275.387 121.848C265.651 129.598 269.141 127.482 277.103 130.436C281.521 132.078 287.943 133.376 291.631 135.618C289.901 139.04 284.873 136.61 284.985 140.531C279.823 138.642 277.461 138.436 281.285 144.528C281.02 149.95 271.499 134.823 255.859 129.335C253.387 130.515 267.48 138.891 266.255 141.403C265.695 141.058 256.373 136.998 254.228 136.016C252.715 135.324 249.821 138.463 235.7 127.136C235.741 128.643 235.741 128.643 235.781 130.151C234.244 128.388 231.063 125.416 230.229 123.894C229.12 121.871 230.012 118.2 228.263 116.334C229.464 115.652 232.451 117.811 233.791 118.228Z" fill="#003337"/>
<path d="M149.856 232.255C150.229 234.475 150.165 241.72 152.065 248.86C150.053 255.167 155.429 295.307 152.844 296.976C148.127 299.259 150.203 290.095 142.788 276.821C136.925 263.696 139.577 253.479 139.308 250.919L141.227 249.753C141.216 259.037 143.871 272.083 146.783 268.265C139.479 256.576 148.277 244.637 145.129 236.003C148.107 232.893 148.017 236.373 149.856 232.255Z" fill="#00524D"/>
<path d="M138.573 233.857C138.193 232.077 136.6 232.141 136.574 232.007C135.245 225.105 137.63 210.613 130.253 214.398C130.24 188.082 122.854 221.567 126.116 243.614C129.598 247.421 129.732 242.598 130.009 239.935C130.524 240.061 130.524 240.061 131.037 240.186C128.772 247.078 130.905 257.371 133.99 263.781C127.816 262.585 128.922 253.346 127.556 248.867C127.077 247.297 124.588 248.569 123.234 233.107C122.141 220.613 124.937 207.307 129.38 195.667C129.956 197.685 134.264 194.865 135.993 196.466C137.386 197.755 141.393 229.419 138.573 233.857Z" fill="#00524D"/>
<path d="M138.758 244.25C139.156 245.858 139.106 249 139.309 250.919C139.577 253.479 136.925 263.696 142.788 276.82C140.344 272.446 136.273 268.523 133.99 263.78C130.905 257.371 128.772 247.078 131.037 240.186C134.506 229.63 137.214 238.01 138.758 244.25Z" fill="#007070"/>
<path d="M138.573 233.857C139.073 236.203 141.049 245.203 138.758 244.25C137.214 238.01 134.506 229.63 131.037 240.186C130.523 240.061 130.523 240.061 130.009 239.935C130.141 238.665 130.255 218.043 130.253 214.398C137.63 210.613 135.245 225.105 136.574 232.007C136.599 232.141 138.193 232.077 138.573 233.857Z" fill="#006060"/>
<path d="M145.129 236.002C148.278 244.638 139.478 256.577 146.782 268.266C143.872 272.082 141.216 259.037 141.226 249.754C141.23 246.879 142.442 228.634 145.129 236.002Z" fill="#00524D"/>
<path d="M130.253 214.398C130.254 218.043 130.141 238.665 130.009 239.935C129.73 242.598 129.598 247.421 126.116 243.614C122.854 221.569 130.24 188.082 130.253 214.398Z" fill="#007070"/>
<path d="M165.688 241.021C165.992 240.256 165.66 238.467 165.413 237.687C165.685 237.393 166.284 236.351 166.304 236.271C170.68 240.924 177.028 258.383 172.477 262.285C172.356 262.103 169.212 259.773 169.063 259.545C165.556 254.212 161.86 248.177 158.768 242.6C160.073 242.316 159.675 240.179 159.52 239.516C163.316 238.68 165.008 244.496 165.688 241.021Z" fill="#00524D"/>
<path d="M161.14 230.652C161.157 231.199 161.192 231.77 161.277 232.32C161.537 233.994 163.674 240.758 165.688 241.022C165.008 244.496 163.316 238.679 159.521 239.515C158.277 234.179 145.38 214.194 158.041 215.463C162.426 221.911 156.589 228.919 161.14 230.652Z" fill="#005260"/>
<path d="M184.607 181.376C186.239 193.711 182.681 211.914 182.825 218.791C182.903 222.556 186.13 237.506 185.239 237.898C176.063 230.791 181.631 235.39 182.831 243.3C183.826 249.855 185.631 277.459 180.774 277.382C177.979 272.33 175.713 267.108 172.478 262.286C177.027 258.383 170.681 240.924 166.303 236.27C168.15 228.774 160.737 217.49 161.139 230.652C156.589 228.92 162.426 221.911 158.041 215.463C145.379 214.194 158.277 234.179 159.521 239.515C159.675 240.179 160.074 242.316 158.767 242.599C141.645 211.723 146.389 189.592 145.115 186.983C155.419 184.375 175.249 188.424 176.751 187.9C178.379 187.331 181.927 183.491 184.607 181.376Z" fill="#003337"/>
<path d="M176.913 193.93C183.218 194.35 182.326 218.406 180.644 218.803C176.26 219.837 166.192 193.955 178.013 207.269C177.462 200.599 177.462 200.599 176.913 193.93Z" fill="#007070"/>
<path d="M166.303 236.27C166.283 236.351 165.685 237.393 165.413 237.686C165.311 237.363 162.301 232.067 161.277 232.319C161.191 231.769 161.157 231.199 161.139 230.653C160.737 217.49 168.15 228.774 166.303 236.27Z" fill="#637B3C"/>
<path d="M163.12 205.812C164.688 205.928 167.4 216.55 164.723 217.096C161.751 217.7 160.299 209.304 163.12 205.812Z" fill="#9F9646"/>
<path d="M158.685 192.747C163.892 191.369 157.984 204.737 156.916 197.762L158.685 192.747Z" fill="#806F5E"/>
<path d="M177.972 223.053C178.846 221.794 180.733 224.877 181.845 227.266C185.629 235.402 181.105 232.184 177.972 223.053Z" fill="#9DD6CF"/>
<path d="M153.934 192.132C154.774 193.153 154.774 193.153 155.614 194.176C155.9 198.699 152.955 196.815 153.934 192.132Z" fill="#888D68"/>
<path d="M165.413 237.687C165.66 238.467 165.992 240.256 165.688 241.021C163.674 240.757 161.537 233.993 161.277 232.32C162.301 232.068 165.31 237.364 165.413 237.687Z" fill="#DEEDDC"/>
<path d="M115.704 135.689C122.813 140.591 132.625 156.569 137.387 158.411C140.337 159.552 137.796 156.617 140.139 157.176C140.889 157.356 142.66 161.115 145.04 161.641C146.211 161.899 153.309 159.263 155.935 159.399C157.245 159.467 166.747 163.576 170.715 163.552C181.933 163.484 212.372 142.755 208.577 130.044C211.933 132.721 212.893 129.475 215.748 127.439C216.497 128.447 219.451 129.321 219.609 129.471C228.049 137.405 216.193 140.729 214.452 148.361C213.313 148.499 212.46 148.452 211.117 148.637C210.821 148.677 209.691 146.761 205.864 150.077C203.065 152.503 204.831 154.52 203.719 156.633C203.16 157.696 203.007 158.16 202.577 159.077C201.157 162.119 199.852 161.488 199.768 161.66C190.824 160.464 184.281 166.309 176.975 170.255C159.249 157.869 157.129 166.444 139.491 167.639C139.981 162.935 137.3 163.332 134.829 159.965C133.211 157.757 131.613 153.891 130.361 152.611C129.737 151.972 120.579 149.681 119.111 148.503C116.861 146.695 116.417 145.297 115.615 142.748C115.504 142.396 118.944 142.255 114.425 136.467C114.817 136.179 115.359 136.004 115.704 135.689Z" fill="#77004B"/>
<path d="M106.342 66.9611C110.481 79.3851 113.8 67.4518 116.712 62.4131C118.408 68.7384 112.172 75.9891 109.053 81.5104C109.166 81.9397 117.42 80.2704 117.836 80.1144C122.724 78.2824 126.176 75.4144 130.693 73.1784C130.829 73.1118 132.948 73.4277 133.709 73.0984C134.113 75.5131 129.977 80.3891 130.616 82.4184C130.933 83.4264 132.032 83.0264 132.226 83.6278C128.114 84.6664 111.321 100.268 113.034 105.356C115.384 109.681 116.118 106.312 116.313 106.429C117.88 107.376 123.148 110.6 121.088 111.406C113.933 107.366 117.052 129.229 113.648 135.188C113.538 135.053 111.074 135.121 110.37 134.114C108.902 132.017 104.772 122.914 104.713 120.48C104.585 115.173 111.593 108.266 105.758 100.584C106.196 100.248 108.944 101.092 111.33 98.9491C111.962 98.3824 112.913 94.7624 113.613 94.0611C114.148 93.5251 115.924 94.1971 117.2 92.7584C118.273 91.5477 117.71 88.9824 122.68 85.9264C124.697 78.4224 117.896 82.4038 113.885 85.1411C118.44 80.2704 99.6397 85.0704 106.236 94.1651C102.169 97.4784 99.8544 102.173 100.278 107.416C97.6224 106.914 98.8277 103.534 97.1704 102.3C97.8637 93.2424 97.2157 89.3744 97.3491 88.1838C98.6731 93.8784 105.834 80.8078 106.346 79.2158C107.005 77.1638 105.932 69.5918 106.342 66.9611Z" fill="#620150"/>
<path d="M218.973 60.6939C224.03 67.1352 224.268 73.5899 227.681 80.7926C227.745 80.9272 226.618 83.0539 229.236 83.3499C229.345 86.7086 229.654 93.6312 231.614 95.9126C229.786 98.7606 231.258 100.755 230.497 102.719C229.23 105.986 227.996 108.909 226.57 112.109C226.112 113.139 225.417 113.719 226.457 114.803C223.682 109.451 219.032 110.723 218.153 109.781C212.744 103.975 224.573 90.5966 216.221 61.9286C210.393 48.2592 214.777 58.1819 217.5 61.1512C217.94 61.6299 218.925 60.6339 218.973 60.6939Z" fill="#A40780"/>
<path d="M100.278 107.416C100.382 107.436 101.659 107.014 102.334 107.917C102.147 108.973 102.24 122.629 104.712 120.48C104.771 122.916 108.903 132.017 110.37 134.114C111.074 135.122 113.539 135.054 113.648 135.188C113.955 135.566 114.123 136.081 114.424 136.466C118.943 142.254 115.503 142.396 115.614 142.748C111.763 141.401 107.6 141.326 103.667 140.376C102.28 140.04 101.786 138.04 99.9444 140.01C91.0431 125.189 95.9911 117.688 97.1698 102.3C98.8271 103.534 97.6231 106.916 100.278 107.416Z" fill="#BF319F"/>
<path d="M228.262 116.334C230.012 118.2 229.12 121.87 230.229 123.894C228.868 129.268 229.426 140.683 225.917 144.898C220.606 151.278 215.43 148.244 214.452 148.362C216.193 140.728 228.049 137.406 219.609 129.47C220.861 124.427 223.077 124.148 223.17 123.804C226.23 130.646 226.453 117.359 228.262 116.334Z" fill="#C80E7D"/>
<path d="M103.667 140.375C100.663 140.593 109.511 147.674 109.997 147.911C110.114 152.198 130.165 162.303 134.829 159.965C137.299 163.333 139.981 162.934 139.491 167.638C137.827 167.751 136.473 167.395 135.905 168.942C135.318 168.567 126.089 165.514 123.043 163.623C122.866 163.462 120.429 162.031 120.21 161.842C112.865 155.437 105.051 148.515 99.9448 140.011C101.786 138.039 102.281 140.041 103.667 140.375Z" fill="#A40780"/>
<path d="M130.229 47.1963C123.223 53.3869 124.82 63.6509 121.831 71.5589C121.735 71.8123 120.355 71.8816 119.341 73.9469C118.884 74.8776 117.784 78.7416 117.835 80.1149C117.419 80.2709 109.167 81.9403 109.053 81.5109C112.172 75.9896 118.408 68.7389 116.711 62.4123C117.071 61.7909 119.887 60.2469 120.479 59.2483C124.219 52.9443 115.283 51.6603 130.229 47.1963Z" fill="#A40780"/>
<path d="M155.175 56.5546C152.288 52.8532 145.946 53.1386 144.734 48.0146C145.196 47.7292 146.186 45.8932 146.515 45.1812C147.579 42.8839 146.979 43.2252 147.016 43.1252C147.588 41.6226 145.332 39.3332 149.631 40.2239C150.879 45.6012 156.366 42.5599 152.626 48.0359C153.611 49.5586 156.68 44.1959 161.878 50.2946C161.924 57.8279 158.324 56.0626 155.175 56.5546Z" fill="#A40780"/>
<path d="M106.342 66.9611C105.932 69.5918 107.005 77.1638 106.346 79.2158C105.834 80.8078 98.6731 93.8785 97.3491 88.1838C97.9118 83.1331 101.273 61.2851 106.342 66.9611Z" fill="#BF319F"/>
<path d="M186.529 111.046C189.913 117.601 189.176 115.75 195.805 117.668C195.616 121.218 201.98 121.465 205.857 125.568C203.068 125.67 203.776 128.792 202.866 130.012C200.881 132.676 187.328 146.224 185.122 146.92C182.825 147.645 180.757 145.458 179.984 145.665C178.424 146.08 177.297 148.909 174.617 149.801C172.365 150.55 170.478 148.274 168.449 148.294C167.938 148.3 165.888 150.424 163.584 150.374C163.192 150.366 158.832 147.361 158.306 147.453C156.142 147.828 153.316 152.512 148.314 150.458C142.889 148.232 143.921 142.64 142.876 141.506C142.148 140.718 136.788 141.953 135.21 136.096C136.057 132.928 136.708 130.004 137.469 126.844C146.885 121.377 143.674 112.664 145.665 112.234C170.008 133.049 174.82 106.606 186.529 111.046Z" fill="#BF319F"/>
<path d="M135.211 136.095C136.787 141.952 142.148 140.718 142.876 141.507C143.921 142.64 142.888 148.232 148.315 150.459C153.316 152.512 156.143 147.827 158.307 147.452C158.832 147.362 163.192 150.366 163.584 150.375C165.888 150.423 167.939 148.3 168.449 148.295C170.477 148.274 172.364 150.55 174.616 149.8C177.297 148.908 178.424 146.08 179.983 145.664C180.756 145.459 182.824 147.644 185.123 146.919C187.328 146.223 200.88 132.675 202.867 130.012C203.776 128.791 203.068 125.671 205.857 125.568C207.145 126.932 208.021 128.184 208.577 130.044C212.372 142.755 181.933 163.483 170.715 163.552C166.747 163.576 157.245 159.467 155.935 159.399C153.308 159.263 146.209 161.899 145.04 161.64C142.66 161.115 140.889 157.355 140.139 157.176C137.796 156.618 140.337 159.552 137.387 158.411C136.397 149.182 130.784 147.184 133.863 136.038C133.881 135.974 135.095 136.531 135.211 136.095Z" fill="#A40780"/>
<path d="M185.058 76.921C185.528 77.1903 185.978 78.9503 186.418 79.1597C186.998 79.4357 195.328 80.213 198.878 81.657C204.663 79.325 193.727 76.4917 195.678 71.345C196.682 71.6503 199.303 70.517 200.874 71.2517C207.132 74.1797 205.135 80.877 205.423 81.621C207.367 86.6583 210.772 91.4103 210.999 92.241C211.346 93.517 211.659 116.158 208.962 118.429C206.846 120.21 198.63 118.485 195.804 117.668C189.175 115.75 189.912 117.601 186.53 111.046C185.734 109.505 184.64 108.097 183.81 106.57C190.204 106.605 197.458 113.633 203.386 107.809C204.88 106.34 204.48 103.416 205.211 101.448C205.406 100.922 208.884 99.5677 206.692 90.917C198.136 83.0823 190.85 90.257 182.524 82.8383C179.615 80.2463 174.027 74.149 170.78 70.7117C175.662 67.6983 175.966 71.721 185.058 76.921Z" fill="#A40780"/>
<path d="M179.045 56.9361C173.464 57.9174 164.845 62.3027 164.062 62.5361C149.742 66.8121 155.725 62.8694 148.598 62.3014C143.325 61.8801 126.298 68.3161 138.048 68.7107C139.101 71.4027 136.384 71.9361 133.709 73.0974C132.948 73.4281 130.829 73.1121 130.693 73.1787C126.176 75.4147 122.724 78.2814 117.836 80.1147C117.784 78.7427 118.885 74.8787 119.341 73.9467C124.168 72.4534 127.005 67.5734 131.034 65.0921C145.153 56.3987 155.414 62.3934 158.602 61.4761C163.064 60.1934 161.674 50.6721 180.381 54.8121C179.713 55.8734 179.713 55.8734 179.045 56.9361Z" fill="#BF319F"/>
<path d="M179.045 56.9361C190.969 54.8388 180.786 61.0241 181.707 62.7601C189.097 68.3361 186.911 68.6735 195.678 71.3441C193.726 76.4908 204.663 79.3255 198.878 81.6561C195.329 80.2121 186.998 79.4348 186.417 79.1588C185.977 78.9495 185.529 77.1908 185.058 76.9215C189.707 76.6668 186.953 70.2228 184.175 68.2641C181.841 66.6175 174.755 68.9521 166.255 64.7055C165.957 64.2215 164.69 64.3281 164.062 62.5361C164.845 62.3028 173.463 57.9175 179.045 56.9361Z" fill="#A40780"/>
<path d="M223.171 123.805C223.076 124.149 220.86 124.427 219.609 129.47C219.449 129.321 216.497 128.447 215.748 127.438C213.087 123.853 214.667 112.063 221.9 114.509C221.245 117.223 223.796 121.525 223.171 123.805Z" fill="#920061"/>
<path d="M146.515 45.1817C146.186 45.8937 145.196 47.7284 144.734 48.015C142.939 49.1257 131.622 48.487 129.743 63.6884C136.456 63.4804 133.432 55.9257 136.239 54.927C137.15 54.6017 142.164 58.5884 155.175 56.555C158.324 56.0617 161.924 57.8284 161.878 50.2937C156.68 44.195 153.611 49.5577 152.626 48.035C156.366 42.5604 150.879 45.6017 149.631 40.2244C145.332 39.3337 147.59 41.6217 147.016 43.1257C146.08 41.9444 146.08 41.9444 145.143 40.7617C154.927 34.7137 163.719 42.8417 168.968 44.6724C171.423 45.5297 186.631 51.3057 186.888 48.231C181.248 44.875 175.043 42.119 180.114 41.403C185.434 42.4564 188.636 40.411 189.284 40.647C189.499 40.7257 191.604 43.8337 192.255 44.095C200.46 47.4004 200.126 48.1324 202.422 49.3004C206.216 51.2324 209.544 50.5004 211.867 51.879C215.012 53.747 216.024 55.839 217.808 58.775C218.391 59.735 218.391 59.735 218.974 60.6937C218.926 60.6337 217.939 61.6297 217.5 61.151C214.776 58.1817 210.394 48.259 216.222 61.9284C224.574 90.5964 212.744 103.975 218.154 109.78C219.031 110.723 223.683 109.451 226.458 114.804C226.863 115.618 227.288 115.072 227.486 115.055C227.874 115.694 227.874 115.694 228.263 116.334C226.452 117.359 226.23 130.646 223.171 123.804C223.796 121.524 221.246 117.223 221.9 114.508C214.667 112.063 213.087 123.852 215.748 127.438C212.894 129.474 211.934 132.722 208.576 130.044C208.022 128.184 207.146 126.932 205.858 125.568C201.98 121.464 195.615 121.218 195.804 117.667C198.63 118.484 206.846 120.211 208.962 118.43C211.659 116.158 211.346 93.5164 210.999 92.2404C210.774 91.4097 207.367 86.659 205.423 81.6204C205.135 80.8764 207.132 74.179 200.874 71.2524C199.303 70.5164 196.682 71.651 195.678 71.3444C186.912 68.6724 189.096 68.3364 181.707 62.7604C180.786 61.023 190.968 54.839 179.044 56.9364C179.712 55.8737 179.712 55.8737 180.38 54.811C161.675 50.671 163.063 60.1937 158.603 61.4764C155.415 62.3924 145.152 56.399 131.034 65.0924C127.006 67.5737 124.168 72.4537 119.342 73.947C120.355 71.8817 121.735 71.8124 121.831 71.559C124.82 63.651 123.223 53.387 130.23 47.1964C138.32 44.7804 142.375 47.851 146.515 45.1817Z" fill="#620150"/>
<path d="M180.114 41.4035C175.043 42.1195 181.249 44.8755 186.889 48.2315C186.631 51.3049 171.423 45.5289 168.969 44.6729C168.075 40.0515 172.975 42.3622 170.406 37.6715C173.174 37.5862 179.603 41.3022 180.114 41.4035Z" fill="#BF319F"/>
<path d="M202.849 68.7387C207.973 62.9574 197.494 58.708 192.521 57.504C195.516 56.2387 194.969 50.6387 191.582 50.1947C191.868 50.08 189.39 47.388 196.002 48.8227C200.894 49.884 200.373 52.032 200.64 52.1334C203.301 53.14 207.066 52.5867 208.476 53.5014C213.902 57.0254 213.746 84.2854 212.241 84.92C208.105 84.1974 209.03 76.4934 202.849 68.7387Z" fill="#A40780"/>
<path d="M144.734 48.0145C145.945 53.1385 152.288 52.8532 155.176 56.5545C142.165 58.5892 137.15 54.6025 136.24 54.9265C133.432 55.9265 136.457 63.4799 129.742 63.6879C131.622 48.4865 142.94 49.1252 144.734 48.0145Z" fill="#A40780"/>
<path d="M192.522 57.5035C197.494 58.7075 207.974 62.9568 202.85 68.7382C198.302 63.0328 193.304 63.9075 187.908 58.5555C188.455 56.9022 191.244 57.1942 192.522 57.5035Z" fill="#890571"/>
<path d="M191.583 50.1945C194.97 50.6398 195.515 56.2398 192.522 57.5038C191.244 57.1945 188.455 56.9011 187.908 58.5558C181.967 52.6638 184.932 52.8651 191.583 50.1945Z" fill="#BF319F"/>
<path d="M166.782 67.0128C167.26 67.6195 168.38 68.5848 168.975 69.1822C168.091 69.6155 168.802 70.4715 169.502 71.4888C160.75 68.0475 151.591 76.1702 153.046 77.5462C156.034 76.6968 159.06 76.9928 160.548 76.9275C157.156 79.1195 171.451 84.6942 173.296 84.9422C170.535 90.4382 173.886 96.9142 177.367 101.729C178.887 103.832 180.88 104.455 182.143 106.707C181.44 106.717 176.283 109.126 168.483 108.002C162.392 115.569 160.004 122.865 153.934 110.713C169.448 114.406 160.04 104.679 161.754 97.6448C157.831 97.2355 157.55 106.213 156.286 106.658C155.207 107.037 152.235 102.065 152.768 108.794C150.539 110.754 150.208 105.667 148.062 104.65C136.987 107.486 139.53 118.294 137.47 126.843C136.708 130.003 136.056 132.927 135.211 136.095C135.094 136.53 133.88 135.973 133.863 136.038C130.784 147.185 136.398 149.182 137.387 158.41C132.626 156.569 122.812 140.59 115.704 135.689C117.316 134.221 120.143 125.851 120.578 123.535C120.694 122.913 115.162 120.378 123.726 112.867L121.087 111.407C123.148 110.601 117.88 107.377 116.312 106.429C118.874 98.8102 130.08 93.7048 130.012 89.3515C136.614 84.6142 132.374 84.0835 132.227 83.6288C132.032 83.0275 130.934 83.4275 130.616 82.4182C129.978 80.3888 134.112 75.5128 133.708 73.0982C136.383 71.9355 139.102 71.4035 138.047 68.7115C149.266 69.0875 152.855 70.6782 153.648 70.6142C159.35 70.1502 161.539 65.9075 166.782 67.0128Z" fill="#A40780"/>
<path d="M136.868 180.613C146.85 184.234 171.572 183.32 174.282 182.396C182.692 179.532 191.266 167.893 199.906 163.328C199.686 163.75 199.722 168 196.23 171.688C195.71 172.238 186.166 180.145 184.608 181.377C181.928 183.492 178.378 187.332 176.752 187.9C175.249 188.425 155.42 184.376 145.116 186.984C145.012 186.772 144.868 186.534 144.726 186.344C142.201 182.933 125.678 181.61 126.062 175.797C129.786 176.798 133.324 179.328 136.868 180.613Z" fill="#D72F8A"/>
<path d="M135.905 168.941C136.472 167.396 137.828 167.75 139.49 167.638C157.129 166.444 159.249 157.869 176.974 170.254C174.764 171.448 173.828 173.12 170.9 173.945C167.388 174.934 160.873 173.788 157.172 174.406C156.204 174.568 154.3 176.578 153.336 176.737C152.448 176.882 145.578 174.04 136.868 180.613C133.324 179.326 129.786 176.798 126.062 175.796C126.476 169.538 142.801 173.326 135.905 168.941Z" fill="#F6B6CC"/>
<path d="M176.975 170.255C184.281 166.309 190.824 160.464 199.768 161.66C199.703 161.796 200.575 162.043 199.905 163.327C191.267 167.893 182.692 179.532 174.283 182.396C171.571 183.319 146.851 184.235 136.868 180.613C145.579 174.04 152.448 176.883 153.336 176.737C154.299 176.579 156.204 174.568 157.172 174.405C160.872 173.788 167.388 174.935 170.9 173.945C173.828 173.12 174.764 171.448 176.975 170.255Z" fill="#F58BB7"/>
<path d="M119.111 148.503C120.578 149.681 129.736 151.972 130.362 152.611C131.614 153.891 133.21 157.757 134.83 159.965C130.166 162.304 110.114 152.197 109.998 147.911C112.303 149.037 117.328 150.597 119.111 148.503Z" fill="#BF319F"/>
<path d="M121.088 111.407L123.726 112.868C115.162 120.378 120.694 122.914 120.577 123.536C120.142 125.851 117.317 134.222 115.704 135.69C115.358 136.003 114.817 136.179 114.425 136.466C114.124 136.08 113.956 135.566 113.648 135.187C117.052 129.23 113.933 107.367 121.088 111.407Z" fill="#DC66B8"/>
<path d="M103.668 140.375C107.6 141.326 111.762 141.401 115.614 142.747C116.417 145.298 116.861 146.695 119.11 148.503C117.329 150.598 112.302 149.037 109.997 147.911C109.512 147.674 100.664 140.593 103.668 140.375Z" fill="#DC66B8"/>
<path d="M105.758 100.584C105.046 101.132 102.531 106.799 102.334 107.918C101.659 107.014 100.382 107.435 100.278 107.415C99.854 102.172 102.169 97.4791 106.235 94.1657C109.581 91.4404 114.669 94.8511 113.885 85.1417C117.897 82.4031 124.697 78.4217 122.679 85.9271C117.71 88.9831 118.273 91.5484 117.199 92.7577C115.923 94.1964 114.149 93.5257 113.614 94.0604C112.913 94.7631 111.963 98.3831 111.331 98.9497C108.943 101.091 106.195 100.247 105.758 100.584Z" fill="#BF319F"/>
<path d="M132.227 83.6283C132.375 84.0843 136.613 84.6136 130.012 89.351C130.081 93.7043 118.875 98.8096 116.312 106.428C116.119 106.312 115.383 109.68 113.035 105.356C111.32 100.268 128.115 84.6656 132.227 83.6283Z" fill="#D94BAC"/>
<path d="M104.713 120.48C102.239 122.629 102.147 108.973 102.334 107.917C102.531 106.798 105.046 101.132 105.758 100.584C111.593 108.266 104.585 115.173 104.713 120.48Z" fill="#A40780"/>
<path d="M113.885 85.141C114.669 94.8517 109.581 91.441 106.236 94.165C99.6399 85.0704 118.44 80.2717 113.885 85.141Z" fill="#A40780"/>
<path d="M152.768 108.794C152.979 111.456 153.883 110.612 153.934 110.713C160.003 122.865 162.392 115.569 168.483 108.002C176.283 109.126 181.44 106.717 182.142 106.708C183.175 106.693 183.716 106.569 183.81 106.57C184.639 108.097 185.734 109.505 186.528 111.046C174.819 106.606 170.007 133.049 145.666 112.234C143.674 112.664 146.886 121.377 137.47 126.844C139.53 118.294 136.987 107.486 148.062 104.65C150.208 105.668 150.539 110.754 152.768 108.794Z" fill="#D94BAC"/>
<path d="M190.156 93.9595C196.005 96.1155 200.376 96.4848 205.211 101.447C204.48 103.415 204.881 106.339 203.385 107.809C197.457 113.633 190.205 106.605 183.809 106.57C183.717 106.569 183.176 106.693 182.143 106.707C180.88 104.455 178.888 103.831 177.367 101.729C179.617 101.115 175.733 96.2955 175.068 92.1822C173.131 80.1835 177.588 90.4862 179.043 91.5182C180.501 92.5542 188.044 93.1808 190.156 93.9595Z" fill="#BF319F"/>
<path d="M170.78 70.712C174.026 74.1493 179.616 80.2453 182.524 82.8373C182.626 84.088 182.626 84.088 182.73 85.3386C180.458 84.1413 178.749 83.9866 176.242 84.0266C174.026 84.0626 175.373 85.22 173.296 84.9413C171.452 84.6946 157.157 79.1186 160.549 76.928C161.19 76.9 162.782 75.2066 163.426 75.18C167.676 74.9986 176.296 81.364 169.501 71.4893C168.801 70.472 168.09 69.616 168.974 69.1826C169.354 69.564 169.821 69.6973 170.78 70.712Z" fill="#620150"/>
<path d="M206.693 90.9171C208.885 99.5678 205.406 100.922 205.211 101.448C200.377 96.4851 196.006 96.1158 190.157 93.9598C190.213 92.6118 190.213 92.6118 190.27 91.2638C193.283 90.9744 191.297 86.9518 206.693 90.9171Z" fill="#BF319F"/>
<path d="M185.058 76.921C175.966 71.721 175.662 67.6984 170.78 70.7117C169.82 69.697 169.355 69.5637 168.975 69.1824C168.38 68.585 167.26 67.6197 166.782 67.013C165.123 64.9117 166.318 64.8064 166.255 64.7064C174.756 68.9517 181.84 66.617 184.176 68.2637C186.954 70.2224 189.707 76.6664 185.058 76.921Z" fill="#BF319F"/>
<path d="M182.524 82.8377C190.849 90.2564 198.136 83.0817 206.693 90.9164C191.297 86.9524 193.284 90.9737 190.269 91.2644C188.663 91.4191 178.404 85.8684 176.243 84.0271C178.749 83.9871 180.459 84.1417 182.731 85.3391C182.627 84.0884 182.627 84.0884 182.524 82.8377Z" fill="#920061"/>
<path d="M164.062 62.5366C164.69 64.3286 165.957 64.2206 166.256 64.7059C166.318 64.8072 165.122 64.9112 166.782 67.0126C161.54 65.9072 159.35 70.1499 153.649 70.6139C152.854 70.6792 149.265 69.0886 138.048 68.7112C126.298 68.3166 143.325 61.8806 148.598 62.3006C155.725 62.8699 149.742 66.8126 164.062 62.5366Z" fill="#D94BAC"/>
<path d="M173.296 84.9417C175.374 85.2204 174.027 84.0631 176.243 84.0271C178.404 85.8684 188.663 91.4191 190.27 91.2644C190.212 92.6124 190.212 92.6124 190.156 93.9591C188.044 93.1817 180.502 92.5537 179.043 91.5191C177.588 90.4857 173.131 80.1831 175.068 92.1817C175.734 96.2951 179.618 101.115 177.367 101.73C173.886 96.9151 170.535 90.4391 173.296 84.9417Z" fill="#BF319F"/>
<path d="M153.934 110.713C153.883 110.613 152.979 111.455 152.769 108.794C152.235 102.065 155.207 107.038 156.286 106.658C157.55 106.213 157.831 97.2366 161.754 97.6446C160.041 104.679 169.449 114.406 153.934 110.713Z" fill="#BF319F"/>
<path d="M169.501 71.4891C176.296 81.3651 167.677 74.9997 163.426 75.1797C162.782 75.2064 161.19 76.8997 160.549 76.9277C159.061 76.9931 156.033 76.6971 153.045 77.5464C151.59 76.1691 160.749 68.0477 169.501 71.4891Z" fill="#A40780"/>
</g>
</g>
<mask id="mask1_8_4" style="mask-type:luminance" maskUnits="userSpaceOnUse" x="0" y="178" width="199" height="163">
<path d="M0.693359 178.944H198.013V340.803H0.693359V178.944Z" fill="white"/>
</mask>
<g mask="url(#mask1_8_4)">
<g opacity="0.649994">
<path d="M34.8986 254.56C31.4666 257.786 22.7159 248.698 25.6173 253.729C17.8573 257.461 23.6933 259.32 32.4719 265.438C32.6653 265.572 32.2733 266.818 33.1119 267.353C35.3039 268.75 57.5426 276.933 58.3306 272.769C61.1746 273.596 64.7906 273.104 67.6133 273.6C68.8506 276.742 56.7733 274.96 54.6506 278.417C43.9573 276.198 29.9226 271.822 21.2759 265.246C19.7439 264.081 7.04392 251.248 5.97192 249.809C6.62259 249.428 6.62259 249.428 7.27326 249.048C2.31592 245.077 13.6706 250.477 19.6506 255.474C26.5986 252.133 14.2319 250.993 6.94926 238.513C10.9466 240.676 12.5373 245.689 19.3053 249.533C20.0253 249.942 33.0199 254.668 34.8986 254.56Z" fill="#005260"/>
<path d="M34.8985 254.56C35.0705 254.338 35.0705 254.338 35.2425 254.117C35.6598 254.569 43.8265 260.884 44.9692 261.676C52.0118 266.56 61.0585 271.513 69.7212 268.148C70.4105 268.505 71.7038 269.204 72.2758 269.422C73.6478 269.95 75.6932 270.218 77.1878 270.404C74.2518 272.666 75.1998 273.65 78.4652 274.233C77.2665 275.294 78.6878 275.729 78.6625 275.804C76.9745 280.721 69.4025 285.141 66.0718 288.357C63.0025 291.32 59.4265 300.033 57.1625 295.26C58.8785 293.868 60.7398 290.126 61.7998 289.292C64.6998 287.006 73.3518 283.193 77.3612 276.566C77.2718 274.161 75.6265 275.898 74.0478 277.181C73.7985 276.953 73.1532 276.549 73.1625 276.494C73.2732 275.837 75.3785 273.296 69.8225 275.317C69.2385 272.872 69.4278 273.918 67.6132 273.6C64.7905 273.104 61.1745 273.596 58.3305 272.769C53.2972 271.305 28.8038 257.23 25.6172 253.729C22.7158 248.698 31.4665 257.786 34.8985 254.56Z" fill="#003337"/>
<path d="M6.94912 238.514C14.2318 250.994 26.5984 252.134 19.6504 255.475C13.6704 250.478 2.31578 245.078 7.27312 249.047C6.62245 249.428 6.62245 249.428 5.97178 249.808C2.10112 244.616 -4.14155 232.518 6.94912 238.514Z" fill="#007070"/>
<path d="M154.401 195.676C157.696 198.715 164.848 198.228 166.972 194.099C167.857 194.044 168.878 194.166 169.77 194.147C169.825 203.38 141.669 210.434 159.093 199.676C154.877 196.019 139.425 212.206 137.933 212.307C136.718 212.39 137.26 210.603 136.164 210.932C130.429 212.654 125.013 220.063 122.932 215.186C123.005 215.024 123.181 214.902 123.276 214.744C126.797 208.808 142.976 198.619 154.401 195.676Z" fill="#005260"/>
<path d="M158.828 211.88C161.565 214.333 175.307 210.853 176.161 206.912C178.2 206.932 187.807 205.011 185.637 202.931C193.647 202.315 187.821 197.812 183.62 196.4C183.523 195.615 183.523 195.615 183.424 194.829C184.771 195.18 189.029 194.357 195.875 200.249C200.319 206.947 175.051 210.376 173.683 211.015C173.453 211.121 172.848 213.52 170.148 214.649C165.851 216.448 161.904 217.493 159.273 218.608C158.232 214.977 156.077 214.103 152.297 213.896C153.684 212.409 155.361 213.292 158.828 211.88Z" fill="#005260"/>
<path d="M131.383 225.298C133.909 228.022 133.829 224.854 135.041 224.241C136.879 223.31 139.835 223.045 140.443 222.765C142.404 221.861 145.781 219.061 148.076 218.416C149.096 218.129 157.177 217.589 157.015 219.689C155.12 220.49 155.732 221.648 154.339 222.22C152.743 222.874 149.723 222.661 147.883 223.229C147.777 223.261 146.865 222.244 145.697 223.304C144.301 224.569 144.46 230.949 127.679 232.346L126.865 227.461C128.403 227.784 130.168 226.378 131.383 225.298Z" fill="#005260"/>
<path d="M152.297 213.896C156.077 214.103 158.232 214.978 159.272 218.607C158.505 218.932 157.781 219.364 157.015 219.688C157.177 217.59 149.095 218.13 148.076 218.416C144.751 215.159 148.787 213.704 152.297 213.896Z" fill="#007070"/>
<path d="M166.972 194.099C164.848 198.229 157.696 198.715 154.401 195.677C160.204 194.182 161.407 194.445 166.972 194.099Z" fill="#005260"/>
<path d="M164.522 206.377C165.548 206.365 168 204.916 169.138 205C169.5 205.027 173.047 206.883 176.16 206.912C175.307 210.853 161.564 214.333 158.827 211.88C160.918 211.029 166.536 208.6 164.522 206.377Z" fill="#007070"/>
<path d="M169.771 194.147C170.47 194.134 171.17 191.631 183.423 194.829C183.522 195.614 183.522 195.614 183.62 196.401C178.556 194.698 169.478 200.247 177.754 198.931L176.576 202.271C179.35 201.955 183.462 203.098 185.636 202.931C187.807 205.011 178.2 206.931 176.16 206.913C173.047 206.883 169.5 205.027 169.138 205.001C170.304 196.311 157.807 206.454 164.522 206.378C166.536 208.601 160.918 211.029 158.828 211.881C155.36 213.293 153.683 212.409 152.298 213.897C148.787 213.705 144.75 215.159 148.076 218.417C145.782 219.061 142.404 221.861 140.442 222.766C139.835 223.045 136.879 223.31 135.04 224.241C133.828 224.854 133.908 228.022 131.382 225.298C135.619 221.531 125.2 224.954 126.866 227.461L127.678 232.347C144.46 230.949 144.302 224.569 145.696 223.303C146.864 222.243 147.778 223.261 147.882 223.229C141.875 229.735 135.991 234.398 127.164 236.202C127.352 230.307 124.167 223.691 123.326 218.329C123.18 217.401 122.712 215.67 122.931 215.186C125.014 220.063 130.428 212.654 136.164 210.933C137.259 210.603 136.719 212.389 137.932 212.306C139.424 212.205 154.876 196.019 159.092 199.677C141.668 210.434 169.824 203.379 169.771 194.147Z" fill="#003337"/>
<path d="M183.621 196.4C187.822 197.812 193.646 202.315 185.637 202.931C183.462 203.097 179.35 201.955 176.577 202.272L177.753 198.932C169.478 200.248 178.557 194.699 183.621 196.4Z" fill="#007070"/>
<path d="M145.373 212.77C145.741 211.054 144.441 212.198 143.359 212.623C144.546 210.378 158.198 206.316 158.801 206.895C159.322 210.463 153.662 208.356 145.373 212.77Z" fill="#458266"/>
<path d="M169.137 205C168.001 204.916 165.549 206.366 164.521 206.378C157.807 206.454 170.305 196.311 169.137 205Z" fill="#476732"/>
<path d="M143.359 212.623C144.441 212.198 145.741 211.054 145.373 212.77C144.665 213.147 126.785 225.29 138.67 215.007C139.182 214.565 142.338 213.026 143.359 212.623Z" fill="#739451"/>
<path d="M131.382 225.298C130.168 226.378 128.402 227.784 126.865 227.461C125.2 224.954 135.62 221.532 131.382 225.298Z" fill="#3DAEA1"/>
<path d="M163.218 256.419C163.647 256.604 163.256 257.405 163.979 257.72C164.46 257.929 171.548 259.4 173.556 260.908C177.43 263.813 177.986 266.463 178.274 266.7C180.228 268.312 182.519 267.205 182.743 267.336C187.899 270.376 184.535 272.064 193.082 271.825C193.718 271.808 195.915 270.444 198.018 271.405C195.518 279.943 186.45 281.905 178.994 283.568C178.292 281.699 173.439 282.632 168.851 280.651C165.764 279.319 162.311 276.392 159.984 275.179C160.915 272.597 177.736 278.72 176.658 276.08C161.855 271.136 179.108 273.285 180.93 275.145C181.442 275.669 178.318 278.851 186.675 276.42C190.774 271.947 170.556 270.955 175.131 267.095C171.975 264.108 169.326 264.745 165.431 264.52C163.742 263.544 164.512 263.108 164.448 263.048C169.547 264.015 160.544 261.321 163.218 256.419Z" fill="#007070"/>
<path d="M127.862 260.854C134.572 264.499 139.578 273.162 142.354 271.406C144.901 270.581 144.457 269.018 141.493 269.319C141.081 264.655 145.581 273.307 149.228 268.947C149.446 269.059 149.297 269.206 150.112 269.634C155.514 272.478 157.522 272.655 157.897 272.847C158.913 273.369 158.733 274.526 159.985 275.179C162.312 276.393 165.765 279.318 168.852 280.651C173.438 282.631 178.293 281.699 178.993 283.569C177.405 283.923 175.301 287.093 164.654 283.771C165.425 281.703 157.645 276.627 153.969 273.341C151.122 275.825 155.278 277.534 153.137 279.43C150.972 280.65 134.493 274.493 133.293 270.747C130.922 279.378 124.373 265.718 120.645 263.754L121.453 259.065C125.249 261.291 126.376 259.146 126.658 259.21C127.61 259.425 127.544 260.681 127.862 260.854Z" fill="#005260"/>
<path d="M142.835 249.798C146.648 250.258 149.71 250.585 153.443 251.659C151.96 252.618 158.183 254.246 163.218 256.418C160.544 261.321 169.547 264.014 164.448 263.047C164.015 262.637 162.106 261.69 161.452 261.429C158.508 260.251 157.232 261.09 154.97 260.646C154.008 259.269 156.804 259.523 158.971 259.146C162.702 254.667 140.351 254.787 139.056 254.661C138.588 254.615 136.191 253.533 135.716 253.485C132.56 247.513 141.015 252.391 142.835 249.798Z" fill="#005260"/>
<path d="M153.443 251.66C175.719 258.076 175.657 264.216 193.082 271.825C184.535 272.064 187.899 270.376 182.743 267.337C182.519 267.205 180.229 268.312 178.274 266.701C177.986 266.462 177.43 263.813 173.557 260.908C171.549 259.401 164.461 257.929 163.979 257.72C163.257 257.405 163.647 256.604 163.218 256.418C158.183 254.246 151.961 252.618 153.443 251.66Z" fill="#005260"/>
<path d="M123.683 249.806C131.942 248.24 135.222 248.88 142.835 249.798C141.015 252.392 132.561 247.513 135.717 253.484C128.673 252.769 124.406 254.124 122.751 251.918C123.038 251.313 123.431 250.428 123.683 249.806Z" fill="#005260"/>
<path d="M122.751 251.919C124.406 254.124 128.674 252.769 135.716 253.484C136.192 253.533 138.588 254.616 139.056 254.661C143.419 259.597 149.5 259.573 154.97 260.645C157.232 261.089 158.508 260.252 161.452 261.429C157.904 262.572 157.904 262.572 154.358 263.715C158.668 266.18 164.459 264.464 165.431 264.521C169.326 264.747 171.975 264.108 175.131 267.095C170.556 270.955 190.774 271.947 186.675 276.42C178.318 278.852 181.442 275.669 180.93 275.145C179.108 273.285 161.855 271.136 176.658 276.081C177.736 278.721 160.915 272.597 159.984 275.18C158.734 274.527 158.914 273.369 157.896 272.848C157.522 272.656 155.514 272.479 150.112 269.635C156.632 271.511 156.632 271.511 163.151 273.385C169.776 273.659 150.147 268.655 149.35 268.333C140.574 264.793 129.207 255.701 127.862 260.855C127.544 260.681 127.611 259.424 126.659 259.209C126.375 259.145 125.25 261.292 121.452 259.064L120.644 263.755C120.411 263.632 118.359 265.333 116.078 262.332C117.023 261.228 120.131 258.073 120.298 257.813C126.896 260.981 129.943 256.959 121.23 255.7C121.334 255.525 122.176 253.135 122.751 251.919Z" fill="#003341"/>
<path d="M150.112 269.634C149.297 269.205 149.447 269.06 149.228 268.948C146.873 267.74 146.357 268.798 146.208 268.728C144.245 267.802 137.165 261.956 133.388 261.956C137.871 266.681 137.871 266.681 142.353 271.405C139.579 273.162 134.572 264.5 127.863 260.854C129.207 255.701 140.575 264.793 149.351 268.333C150.147 268.654 169.776 273.66 163.152 273.385C156.632 271.51 156.632 271.51 150.112 269.634Z" fill="#889C70"/>
<path d="M121.23 255.7C129.944 256.959 126.897 260.98 120.298 257.812C120.361 257.715 119.777 258.172 121.23 255.7Z" fill="#D8D497"/>
<path d="M154.969 260.646C149.5 259.572 143.419 259.598 139.056 254.662C140.351 254.787 162.701 254.667 158.971 259.146C156.804 259.524 154.009 259.268 154.969 260.646Z" fill="#00474C"/>
<path d="M25.6168 253.729C28.8034 257.23 53.2981 271.305 58.3314 272.769C57.5421 276.933 35.3048 268.75 33.1114 267.353C32.2728 266.818 32.6648 265.573 32.4728 265.438C23.6928 259.319 17.8568 257.461 25.6168 253.729Z" fill="#007070"/>
<path d="M122.056 233.651C127.012 229.492 122.07 243.392 125.938 242.341C125.336 245.184 124.782 247.099 123.684 249.807C123.432 250.428 123.037 251.313 122.752 251.919C122.176 253.133 121.334 255.525 121.23 255.7C119.777 258.173 120.361 257.715 120.298 257.812C120.132 258.073 117.024 261.228 116.077 262.332C115.484 263.024 113.813 265.292 113.672 265.427C112.552 266.501 112.705 266.699 112.641 266.753C112.366 266.992 107.549 269.563 106.308 270.341C106.16 270.435 106.113 270.693 105.965 270.783C104.578 271.62 102.92 272.251 101.448 272.945C101.078 271.596 101.078 271.596 100.71 270.245C113.558 263.583 115.725 251.517 116.264 238.368C117.596 239.785 120.521 234.939 122.056 233.651Z" fill="#3B6C05"/>
<path d="M48.5957 246.058C48.6344 246.051 49.0131 246.535 49.3811 245.959C49.4291 246.141 50.6837 248.653 51.0037 249.347C52.3277 258.179 61.3184 256.73 44.9691 261.675C43.8264 260.883 35.6597 254.57 35.2424 254.118C32.4344 251.083 31.5464 247.309 30.7197 243.513C36.5384 242.919 42.8291 247.043 48.5957 246.058Z" fill="#89A93C"/>
<path d="M118.555 202.567C117.377 205.707 112.655 197.404 111.189 201.096C111.525 204.104 110.586 204.403 110.454 204.78C109.313 206.02 109.313 206.02 108.171 207.262C109.107 202.499 107.681 200.332 106.227 196.532C104.41 191.784 99.902 182.21 94.8273 182.002C93.0233 180.147 91.9753 180.248 90.062 179.008C102.547 181.299 112.591 191.803 118.555 202.567Z" fill="#679219"/>
<path d="M74.0054 181.421C77.8481 184.438 85.9041 179.456 90.8001 181.708C91.9881 183.366 92.2027 184.845 92.4227 185.096C90.9507 189.27 90.9507 189.27 89.4801 193.445C88.6961 192.633 80.0067 185.253 79.4334 184.93C79.1294 184.76 74.4587 184.701 73.6134 184.662C70.7841 184.534 69.5694 184.89 66.8867 185.108C69.2187 183.852 71.5081 182.348 74.0054 181.421Z" fill="#7B0026"/>
<path d="M123.326 218.329C124.167 223.691 127.353 230.307 127.165 236.202C127.141 236.941 126.253 240.866 125.939 242.341C122.071 243.393 127.011 229.493 122.055 233.651C121.197 232.797 121.897 231.126 122.005 230.066C122.719 223.125 119.407 220.822 116.547 215.189L114.63 209.443C114.911 209.945 116.287 210.458 116.619 210.99C118.535 214.053 119.205 218.682 123.326 218.329Z" fill="#657D18"/>
<path d="M118.555 202.567C120.321 205.754 121.875 211.166 123.275 214.744C123.182 214.902 123.005 215.024 122.931 215.186C122.711 215.67 123.181 217.4 123.326 218.328C119.205 218.683 118.535 214.052 116.619 210.99C116.287 210.459 114.91 209.944 114.63 209.444C113.099 206.715 113.082 203.634 111.189 201.096C112.655 197.404 117.377 205.707 118.555 202.567Z" fill="#657D18"/>
<path d="M30.7167 237.128C32.222 238.067 37.2967 239.072 38.0833 238.599C40.774 240.168 42.31 243.215 45.0353 244.709C45.8393 245.151 49.0407 244.131 48.5953 246.057C42.8287 247.043 36.538 242.92 30.7193 243.512C30.606 242.992 28.2687 238.743 30.7167 237.128Z" fill="#89A93C"/>
<path d="M90.0626 179.008C91.9746 180.248 93.0226 180.147 94.8279 182.001C96.6053 183.828 99.5706 186.937 98.1706 189.562C97.9173 189.301 97.0093 190.328 92.4226 185.096C92.2026 184.845 91.9879 183.367 90.7999 181.708C90.2239 180.904 88.9559 180.233 88.4919 179.205C88.5706 179.212 88.8613 178.788 90.0626 179.008Z" fill="#A07829"/>
<path d="M88.4912 179.205C88.9565 180.233 90.2232 180.904 90.8005 181.709C85.9032 179.456 77.8485 184.438 74.0059 181.421C79.9899 179.201 82.1952 178.7 88.4912 179.205Z" fill="#AA005B"/>
<path d="M51.0034 249.347C52.1874 251.916 52.8741 252.143 52.9687 252.292C56.6807 258.16 57.8127 259.468 63.1887 263.779C64.5381 264.862 66.2261 266.367 67.6101 267.215C67.7087 267.275 68.4887 267.507 69.7221 268.147C61.0594 271.514 52.0127 266.56 44.9688 261.676C61.3194 256.731 52.3274 258.179 51.0034 249.347Z" fill="#679219"/>
<path d="M116.502 224.372C117.006 225.584 121.409 233.326 122.005 230.066C121.896 231.125 121.197 232.797 122.056 233.65C120.521 234.938 117.596 239.785 116.262 238.368C116.433 234.213 116.404 229.794 115.472 225.698C115.786 225.238 116.176 224.825 116.502 224.372Z" fill="#679219"/>
<path d="M106.227 196.532C107.68 200.332 109.108 202.499 108.171 207.262C109.312 206.022 109.312 206.022 110.453 204.78C110.433 204.839 111.352 205.215 111.165 205.688C110.099 208.41 106.268 208.626 109.129 210.134C108.888 210.003 106.644 210.142 103.776 208.811C105.012 206.906 104.933 199.554 104.411 197.958C105.319 197.244 105.319 197.244 106.227 196.532Z" fill="#679219"/>
<path d="M106.227 196.532C105.319 197.244 105.319 197.244 104.411 197.958C103.28 194.506 100.269 191.728 98.1693 189.563C99.5707 186.936 96.6053 183.828 94.8267 182.002C99.9013 182.21 104.411 191.784 106.227 196.532Z" fill="#89A93C"/>
<path d="M114.63 209.444L116.547 215.189C113.723 213.348 113.723 213.348 110.899 211.508C110.312 211.083 109.724 210.456 109.13 210.133C106.268 208.625 110.098 208.411 111.166 205.689C111.352 205.216 110.432 204.839 110.454 204.78C110.586 204.403 111.524 204.105 111.188 201.097C113.082 203.633 113.1 206.715 114.63 209.444Z" fill="#365609"/>
<path d="M92.4225 185.096C97.0091 190.328 97.9171 189.301 98.1705 189.563C100.27 191.728 103.28 194.505 104.41 197.957C104.933 199.553 105.012 206.905 103.777 208.811C103.126 208.508 101.788 208.603 101.321 208.32C98.7998 206.796 92.9758 198.777 89.0131 194.501C88.6878 194.151 89.5198 193.487 89.4798 193.445C90.9505 189.271 90.9505 189.271 92.4225 185.096Z" fill="#B1BB4C"/>
<path d="M116.547 215.189C119.407 220.822 122.719 223.125 122.005 230.066C121.409 233.326 117.007 225.583 116.502 224.371C114.446 219.433 117.146 216.046 110.898 211.509C113.723 213.349 113.723 213.349 116.547 215.189Z" fill="#B1BB4C"/>
<path d="M46.4643 200.438C46.6323 200.287 48.655 199.734 50.367 198.152C51.7363 196.89 53.1096 194.058 54.319 193.068C57.3443 195.708 62.4243 190.74 67.1096 191.663C72.3416 192.694 84.4323 201.299 72.9096 202.906C70.0456 204.932 82.2083 205.73 79.8123 208.624C66.4043 206.388 72.3696 204.434 65.8376 200.602C54.467 193.93 36.991 207.279 47.1576 212.322C41.9176 220.052 42.6896 229.475 38.771 237.714C38.4176 237.479 34.0856 235.167 33.663 235.163C33.1883 221.978 39.4723 211.223 46.4643 200.438Z" fill="#F6B6CC"/>
<path d="M66.8864 185.107C69.569 184.891 70.7837 184.534 73.6144 184.662C79.9597 187.171 77.1477 190.266 78.6504 191.413C79.161 191.802 82.5984 191.195 83.4624 191.607C88.4264 193.969 94.5117 206.634 100.389 210.433C98.861 213.57 98.169 213.057 97.297 214.411C86.525 207.401 85.0384 209.495 79.8117 208.625C82.2077 205.73 70.045 204.931 72.9104 202.906C84.4317 201.298 72.341 192.694 67.1104 191.663C62.425 190.741 57.3437 195.709 54.3184 193.069C58.8624 189.346 62.0317 187.722 66.8864 185.107Z" fill="#F58BB7"/>
<path d="M46.4644 200.438C39.4724 211.223 33.1884 221.978 33.6631 235.163C33.5617 235.162 33.1111 236.369 31.7471 235.802C32.1111 223.115 35.1457 217.974 41.2377 208.077C41.6177 207.459 42.8511 203.302 43.3471 202.625C45.3777 199.85 46.3231 200.565 46.4644 200.438Z" fill="#F58BB7"/>
<path d="M31.7475 235.802C33.1115 236.368 33.5621 235.162 33.6621 235.163C34.0848 235.167 38.4181 237.479 38.7701 237.714C38.9261 237.816 39.0568 237.956 39.2128 238.058C38.8928 238.379 38.5048 238.344 38.0835 238.598C37.2968 239.071 32.2221 238.066 30.7168 237.128L31.7475 235.802Z" fill="#CB3157"/>
<path d="M47.1569 212.322C47.2196 212.352 48.1036 210.703 48.5569 212.346C44.6303 221.41 44.4663 231.37 42.4063 241.248C41.8716 240.872 41.5316 239.564 39.2129 238.058C39.0569 237.956 38.9249 237.818 38.7703 237.714C42.6889 229.475 41.9183 220.052 47.1569 212.322Z" fill="#F58BB7"/>
<path d="M89.4796 193.446C89.5196 193.487 88.6876 194.15 89.0143 194.502C92.9756 198.778 98.8009 206.796 101.321 208.32C101.346 209.5 100.704 209.784 100.389 210.432C94.5116 206.634 88.4263 193.968 83.4636 191.607C82.5983 191.195 79.1609 191.803 78.6503 191.412C77.1476 190.266 79.9596 187.171 73.6143 184.662C74.4583 184.7 79.1303 184.759 79.4329 184.93C80.0076 185.252 88.6956 192.634 89.4796 193.446Z" fill="#E757A2"/>
<path d="M97.2969 214.411C98.1689 213.057 98.8609 213.57 100.389 210.433C100.704 209.785 101.346 209.501 101.321 208.321C101.789 208.603 103.126 208.509 103.777 208.81C106.645 210.141 108.888 210.002 109.13 210.134C109.725 210.455 110.312 211.082 110.898 211.509C117.145 216.046 114.446 219.433 116.502 224.371C116.176 224.825 115.786 225.238 115.472 225.698C115.361 225.861 115.172 226.006 115.128 226.141L114.686 225.797C115.301 213.667 101.181 205.474 96.3169 219.322C96.2689 218.885 95.5489 216.759 95.5796 216.622C95.8876 215.199 97.2209 214.529 97.2969 214.411Z" fill="#C80E7D"/>
<path d="M100.349 232.383C101.676 235.29 104.82 240.894 105.117 241.761C96.776 250.29 99.0294 252.149 98.7134 252.739C96.9334 256.07 94.6307 253.894 92.968 254.657C92.3707 254.931 91.2587 257.354 90.564 257.751C89.3227 258.461 86.736 256.925 85.4067 257.999C84.0027 259.135 84.172 261.047 83.1014 261.881C81.256 263.313 79.1987 262.777 76.8654 266.254C75.988 267.562 80.5707 268.001 72.276 269.423C71.704 269.203 70.4107 268.505 69.7214 268.147C68.488 267.507 67.708 267.275 67.6094 267.215C70.0267 265.713 68.792 260.977 70.724 258.645C71.1294 258.155 78.868 254.242 80.0027 253.091C85.5214 247.501 90.5374 233.567 100.349 232.383Z" fill="#F58BB7"/>
<path d="M77.1873 270.403C79.5739 270.698 83.8793 270.759 85.8299 269.319C98.8979 269.875 113.305 252.654 108.358 242.152C108.53 241.931 108.53 241.931 108.702 241.71C111.597 243.983 112.361 235.916 113.387 232.943C113.658 232.16 115.247 232.464 115.303 232.303C115.706 231.135 114.783 227.194 115.129 226.14C115.173 226.007 115.361 225.86 115.471 225.698C116.405 229.794 116.433 234.212 116.263 238.368C115.725 251.518 113.558 263.582 100.71 270.246C97.3406 271.992 82.2473 274.908 78.4659 274.232C75.1993 273.65 74.2513 272.667 77.1873 270.403Z" fill="#431623"/>
<path d="M105.117 241.761C106.785 246.63 106.466 251.286 103.478 255.733C97.5796 264.51 75.165 268.865 85.8303 269.318C83.8796 270.758 79.5743 270.697 77.1876 270.404C75.693 270.218 73.6476 269.95 72.2756 269.424C80.5703 268.001 75.9876 267.562 76.8663 266.253C79.1983 262.777 81.257 263.313 83.101 261.88C84.173 261.048 84.0036 259.136 85.4076 258C86.7356 256.925 89.3236 258.461 90.5636 257.752C91.2596 257.354 92.3703 254.932 92.969 254.657C94.6303 253.894 96.9343 256.07 98.713 252.74C99.029 252.149 96.777 250.29 105.117 241.761Z" fill="#E757A2"/>
<path d="M81.0426 215.253C82.2839 215.52 82.6266 215.82 82.7119 215.841C79.1386 228.168 66.9199 233.992 59.6679 243.672C59.3253 244.129 59.8599 248.844 52.9693 252.293C52.8746 252.143 52.1879 251.916 51.0039 249.347C50.6839 248.653 49.4293 246.141 49.3813 245.96C49.3613 245.883 49.2799 244.965 49.1839 244.388C49.1386 244.112 49.2239 239.397 49.2799 238.789C56.2626 243.897 58.8333 234.123 62.8053 230.509C68.6333 225.208 76.0413 221.521 81.0426 215.253Z" fill="#F6B6CC"/>
<path d="M39.2128 238.058C41.5315 239.564 41.8715 240.872 42.4062 241.248C43.4315 241.968 44.5315 243.132 45.5008 243.654C46.1808 244.018 48.1742 244.018 49.1848 244.388C49.2795 244.966 49.3622 245.883 49.3822 245.959C49.0128 246.535 48.6355 246.051 48.5955 246.058C49.0408 244.131 45.8395 245.151 45.0355 244.71C42.3102 243.215 40.7742 240.168 38.0835 238.599C38.5048 238.346 38.8928 238.379 39.2128 238.058Z" fill="#8B6D2D"/>
<path d="M95.5793 216.622C95.5499 216.759 96.2686 218.885 96.3166 219.322C97.4459 229.471 107.015 239.302 108.358 242.153C113.305 252.654 98.8979 269.875 85.8299 269.319C75.1646 268.865 97.5793 264.51 103.478 255.733C106.466 251.286 106.785 246.63 105.117 241.761C104.821 240.895 101.675 235.29 100.35 232.383C99.7713 231.115 97.2793 227.871 96.8606 226.835C96.2246 225.263 95.8939 223.127 95.3846 221.434C94.8926 219.798 95.6353 218.755 93.5659 216.475C94.3699 216.874 94.7406 218.059 95.5793 216.622Z" fill="#D72F8A"/>
<path d="M65.9655 212.755C66.4575 213.491 66.4575 213.491 66.9481 214.229C56.7841 216.305 50.1801 228.967 49.2801 238.79C49.2241 239.398 49.1388 244.111 49.1841 244.389C48.1748 244.018 46.1815 244.018 45.5015 243.653C46.8561 229.647 50.1908 215.985 65.9655 212.755Z" fill="#F58BB7"/>
<path d="M79.8121 208.624C85.0387 209.496 86.5254 207.402 97.2974 214.411C97.2214 214.53 95.8867 215.2 95.5787 216.622C94.7401 218.059 94.3694 216.874 93.5654 216.475C86.3894 212.922 73.8801 211.135 65.9654 212.755C50.1907 215.984 46.8561 229.648 45.5014 243.654C44.5307 243.132 43.4321 241.968 42.4067 241.248C44.4667 231.37 44.6307 221.41 48.5561 212.346C48.1027 210.703 47.2201 212.352 47.1574 212.322C36.9907 207.279 54.4667 193.93 65.8374 200.602C72.3694 204.434 66.4041 206.388 79.8121 208.624Z" fill="#FBCEE2"/>
<path d="M93.5658 216.475C95.6365 218.755 94.8925 219.798 95.3845 221.434C91.3392 217.45 87.5232 217.109 82.7125 215.842C82.6272 215.819 82.2832 215.519 81.0432 215.253C78.2565 214.655 69.3112 213.745 66.9485 214.227C66.4565 213.491 66.4565 213.491 65.9658 212.755C73.8805 211.135 86.3898 212.922 93.5658 216.475Z" fill="#E757A2"/>
<path d="M50.4236 214.505C56.1863 207.684 63.1876 208.123 61.1276 210.768C55.7756 212.637 55.7756 212.637 50.4236 214.505Z" fill="#EE75AF"/>
<path d="M114.686 225.797C112.42 225.087 113.258 217.301 108.913 219.538C114.261 230.686 109.222 231.321 108.702 241.71C108.53 241.931 108.53 241.931 108.358 242.153C107.016 239.302 97.4462 229.471 96.3169 219.322C101.181 205.474 115.301 213.667 114.686 225.797Z" fill="#2F0D3C"/>
<path d="M114.686 225.797L115.129 226.141C114.783 227.193 115.706 231.134 115.303 232.303C115.247 232.465 113.658 232.161 113.387 232.942C112.361 235.917 111.597 243.983 108.702 241.71C109.222 231.321 114.261 230.686 108.913 219.538C113.258 217.301 112.419 225.087 114.686 225.797Z" fill="#620150"/>
<path d="M96.8605 226.836C97.2791 227.872 99.7711 231.114 100.35 232.384C90.5378 233.568 85.5205 247.5 80.0031 253.092C78.8685 254.241 71.1298 258.156 70.7245 258.645C68.7925 260.977 70.0271 265.713 67.6098 267.216C66.2271 266.368 64.5378 264.861 63.1885 263.78C65.9631 262.816 62.0431 258.873 63.8471 254.718C64.4218 253.398 66.8671 251.368 67.6271 249.856C67.8351 249.441 68.4725 245.156 68.6071 244.944C69.4565 243.61 72.8245 243.089 73.1245 242.781C74.4471 241.421 74.1378 238.024 75.5765 236.888C75.9178 236.618 78.3871 236.761 78.7191 236.493C79.9645 235.492 78.6258 231.75 85.3965 232.464C88.1538 218.77 89.8965 226.537 96.8605 226.836Z" fill="#F58BB7"/>
<path d="M82.7124 215.842C87.5231 217.11 91.3391 217.45 95.3844 221.435C95.8937 223.127 96.2244 225.263 96.8604 226.835C89.8964 226.537 88.1537 218.77 85.3964 232.463C78.6257 231.75 79.9644 235.491 78.7191 236.494C78.3857 236.761 75.9177 236.618 75.5764 236.887C74.1377 238.023 74.4471 241.421 73.1231 242.782C72.8244 243.089 69.4564 243.611 68.6071 244.945C68.4724 245.155 67.8351 249.441 67.6271 249.855C66.8671 251.367 64.4204 253.399 63.8471 254.719C62.0431 258.874 65.9631 262.817 63.1884 263.779C57.8124 259.469 56.6804 258.161 52.9697 252.293C59.8604 248.845 59.3257 244.129 59.6684 243.671C66.9204 233.991 79.1391 228.169 82.7124 215.842Z" fill="#F6B6CC"/>
<path d="M66.9483 214.228C69.3109 213.745 78.2563 214.655 81.0429 215.253C76.0416 221.521 68.6336 225.208 62.8056 230.509C58.8323 234.123 56.2629 243.896 49.2803 238.789C50.1789 228.968 56.7843 216.304 66.9483 214.228Z" fill="#FBCEE2"/>
</g>
</g>
</svg>
