<svg width="826" height="216" viewBox="0 0 826 216" fill="none" xmlns="http://www.w3.org/2000/svg">
<path d="M57.1152 152.34C64.8259 152.34 72.1339 150.86 79.0419 147.902C85.9432 144.942 91.9966 140.907 97.2019 135.795C102.401 130.683 106.483 124.676 109.442 117.768C112.402 110.867 113.882 103.468 113.882 95.5737C113.882 87.8643 112.402 80.5536 109.442 73.6483C106.483 66.7457 102.401 60.6923 97.2019 55.4883C91.9966 50.2883 85.9432 46.2057 79.0419 43.247C72.1339 40.287 64.8259 38.807 57.1152 38.807C47.6059 38.807 38.7752 41.007 30.6166 45.399C22.4526 49.795 15.6846 55.8483 10.3046 63.559V127.588C15.6846 135.484 22.4526 141.579 30.6166 145.883C38.7752 150.188 47.6059 152.34 57.1152 152.34ZM57.1152 29.9297C66.2632 29.9297 74.8246 31.6777 82.8086 35.1763C90.7859 38.6737 97.7406 43.3817 103.658 49.3003C109.577 55.219 114.239 62.1723 117.647 70.1497C121.053 78.1323 122.761 86.607 122.761 95.5737C122.761 104.72 121.053 113.288 117.647 121.267C114.239 129.25 109.577 136.198 103.658 142.116C97.7406 148.035 90.7859 152.702 82.8086 156.106C74.8246 159.515 66.2632 161.218 57.1152 161.218C48.1459 161.218 39.6699 159.562 31.6912 156.24C23.7086 152.924 16.5792 148.128 10.3046 141.848V209.644C10.3046 212.692 8.8659 214.218 5.99923 214.218C2.94723 214.218 1.4259 212.692 1.4259 209.644V34.503C1.4259 31.455 2.94723 29.9297 5.99923 29.9297C8.8659 29.9297 10.3046 31.455 10.3046 34.503V49.5683C16.5792 43.2937 23.7086 38.4497 31.6912 35.0403C39.6699 31.6363 48.1459 29.9297 57.1152 29.9297Z" fill="#532459"/>
<path d="M57.1152 152.34C64.8259 152.34 72.1339 150.86 79.0419 147.902C85.9432 144.942 91.9966 140.907 97.2019 135.795C102.401 130.683 106.483 124.676 109.442 117.768C112.402 110.867 113.882 103.468 113.882 95.5737C113.882 87.8643 112.402 80.5537 109.442 73.6483C106.483 66.7457 102.401 60.6923 97.2019 55.4883C91.9966 50.2883 85.9432 46.2057 79.0419 43.247C72.1339 40.287 64.8259 38.807 57.1152 38.807C47.6059 38.807 38.7752 41.007 30.6166 45.399C22.4526 49.795 15.6846 55.8483 10.3046 63.559V127.588C15.6846 135.484 22.4526 141.579 30.6166 145.883C38.7752 150.188 47.6059 152.34 57.1152 152.34ZM57.1152 29.9297C66.2632 29.9297 74.8246 31.6777 82.8086 35.1763C90.7859 38.6737 97.7406 43.3817 103.658 49.3003C109.577 55.219 114.239 62.1723 117.647 70.1497C121.053 78.1323 122.761 86.607 122.761 95.5737C122.761 104.72 121.053 113.288 117.647 121.267C114.239 129.25 109.577 136.198 103.658 142.116C97.7406 148.035 90.7859 152.702 82.8086 156.106C74.8246 159.515 66.2632 161.218 57.1152 161.218C48.1459 161.218 39.6699 159.562 31.6912 156.24C23.7086 152.924 16.5792 148.128 10.3046 141.848V209.644C10.3046 212.692 8.8659 214.218 5.99923 214.218C2.94723 214.218 1.4259 212.692 1.4259 209.644V34.503C1.4259 31.455 2.94723 29.9297 5.99923 29.9297C8.8659 29.9297 10.3046 31.455 10.3046 34.503V49.5683C16.5792 43.2937 23.7086 38.4497 31.6912 35.0403C39.6699 31.6363 48.1459 29.9297 57.1152 29.9297Z" stroke="#532459" stroke-width="2.66667" stroke-miterlimit="10"/>
<path d="M203.381 39.0763C196.563 39.0763 190.017 40.4763 183.741 43.2683C177.46 46.063 171.905 49.8923 167.061 54.7603C162.219 59.6283 158.225 65.307 155.091 71.7976C151.949 78.2883 150.112 85.1363 149.575 92.3456H257.456C256.919 85.6776 255.347 79.1416 252.748 72.7443C250.147 66.3456 246.515 60.667 241.853 55.7056C237.188 50.7496 231.629 46.7403 225.172 43.6763C218.716 40.611 211.452 39.0763 203.381 39.0763ZM266.335 96.919C266.335 99.7896 264.896 101.224 262.031 101.224H149.575C150.112 108.58 151.995 115.482 155.223 121.939C158.453 128.396 162.621 134.046 167.735 138.888C172.845 143.731 178.764 147.544 185.489 150.323C192.216 153.104 199.345 154.492 206.879 154.492C216.383 154.492 225.261 152.298 233.513 147.902C241.761 143.508 248.58 137.455 253.96 129.742C255.931 127.588 258.083 127.231 260.416 128.664C261.311 129.384 261.896 130.372 262.164 131.624C262.433 132.88 262.207 133.958 261.492 134.854C255.212 143.823 247.276 150.818 237.683 155.838C228.087 160.86 217.816 163.371 206.879 163.371C197.731 163.371 189.123 161.622 181.051 158.124C172.98 154.627 165.939 149.876 159.931 143.866C153.92 137.859 149.212 130.818 145.807 122.747C142.399 114.675 140.696 106.066 140.696 96.919C140.696 88.1336 142.264 79.7016 145.404 71.6296C148.54 63.559 153.248 56.295 159.528 49.8376C165.447 43.5616 172.215 38.719 179.841 35.311C187.461 31.9056 195.311 30.199 203.381 30.199C212.167 30.199 220.464 31.947 228.267 35.4443C236.068 38.943 242.929 43.919 248.848 50.3763C254.585 56.6563 258.936 63.6936 261.896 71.495C264.855 79.2976 266.335 87.503 266.335 96.1123V96.919Z" fill="#532459"/>
<path d="M203.381 39.0763C196.563 39.0763 190.017 40.4763 183.741 43.2683C177.46 46.063 171.905 49.8923 167.061 54.7603C162.219 59.6283 158.225 65.307 155.091 71.7976C151.949 78.2883 150.112 85.1363 149.575 92.3456H257.456C256.919 85.6776 255.347 79.1416 252.748 72.7443C250.147 66.3456 246.515 60.667 241.853 55.7056C237.188 50.7496 231.629 46.7403 225.172 43.6763C218.716 40.611 211.452 39.0763 203.381 39.0763ZM266.335 96.919C266.335 99.7896 264.896 101.224 262.031 101.224H149.575C150.112 108.58 151.995 115.482 155.223 121.939C158.453 128.396 162.621 134.046 167.735 138.888C172.845 143.731 178.764 147.544 185.489 150.323C192.216 153.104 199.345 154.492 206.879 154.492C216.383 154.492 225.261 152.298 233.513 147.902C241.761 143.508 248.58 137.455 253.96 129.742C255.931 127.588 258.083 127.231 260.416 128.664C261.311 129.384 261.896 130.372 262.164 131.624C262.433 132.88 262.207 133.958 261.492 134.854C255.212 143.823 247.276 150.818 237.683 155.838C228.087 160.86 217.816 163.371 206.879 163.371C197.731 163.371 189.123 161.622 181.051 158.124C172.98 154.627 165.939 149.876 159.931 143.866C153.92 137.859 149.212 130.818 145.807 122.747C142.399 114.675 140.696 106.066 140.696 96.919C140.696 88.1336 142.264 79.7016 145.404 71.6296C148.54 63.559 153.248 56.295 159.528 49.8376C165.447 43.5616 172.215 38.719 179.841 35.311C187.461 31.9056 195.311 30.199 203.381 30.199C212.167 30.199 220.464 31.947 228.267 35.4443C236.068 38.943 242.929 43.919 248.848 50.3763C254.585 56.6563 258.936 63.6936 261.896 71.495C264.855 79.2976 266.335 87.503 266.335 96.1123V96.919Z" stroke="#532459" stroke-width="2.66667" stroke-miterlimit="10"/>
<path d="M350.183 38.8075C342.289 38.8075 334.891 40.2875 327.989 43.2462C321.082 46.2062 315.029 50.2875 309.829 55.4875C304.625 60.6915 300.547 66.7448 297.587 73.6475C294.629 80.5542 293.149 87.9528 293.149 95.8435C293.149 103.737 294.629 111.136 297.587 118.038C300.547 124.945 304.625 130.998 309.829 136.198C315.029 141.402 321.082 145.48 327.989 148.438C334.891 151.398 342.289 152.878 350.183 152.878C358.074 152.878 365.473 151.398 372.378 148.438C379.282 145.48 385.334 141.402 390.538 136.198C395.739 130.998 399.819 124.945 402.779 118.038C405.738 111.136 407.218 103.737 407.218 95.8435C407.218 87.9528 405.738 80.5542 402.779 73.6475C399.819 66.7448 395.739 60.6915 390.538 55.4875C385.334 50.2875 379.282 46.2062 372.378 43.2462C365.473 40.2875 358.074 38.8075 350.183 38.8075ZM350.183 161.757C341.037 161.757 332.469 160.008 324.49 156.51C316.509 153.013 309.558 148.305 303.641 142.386C297.722 136.468 293.014 129.518 289.515 121.536C286.018 113.557 284.27 104.99 284.27 95.8435C284.27 86.6955 286.018 78.1328 289.515 70.1502C293.014 62.1715 297.722 55.2182 303.641 49.2995C309.558 43.3822 316.509 38.6742 324.49 35.1755C332.469 31.6782 341.037 29.9302 350.183 29.9302C359.33 29.9302 367.893 31.6782 375.877 35.1755C383.854 38.6742 390.809 43.3822 396.726 49.2995C402.645 55.2182 407.353 62.1715 410.851 70.1502C414.349 78.1328 416.097 86.6955 416.097 95.8435C416.097 104.99 414.349 113.557 410.851 121.536C407.353 129.518 402.645 136.468 396.726 142.386C390.809 148.305 383.854 153.013 375.877 156.51C367.893 160.008 359.33 161.757 350.183 161.757Z" fill="#532459"/>
<path d="M350.183 38.8075C342.289 38.8075 334.891 40.2875 327.989 43.2462C321.082 46.2062 315.029 50.2875 309.829 55.4875C304.625 60.6915 300.547 66.7448 297.587 73.6475C294.629 80.5542 293.149 87.9528 293.149 95.8435C293.149 103.737 294.629 111.136 297.587 118.038C300.547 124.945 304.625 130.998 309.829 136.198C315.029 141.402 321.082 145.48 327.989 148.438C334.891 151.398 342.289 152.878 350.183 152.878C358.074 152.878 365.473 151.398 372.378 148.438C379.282 145.48 385.334 141.402 390.538 136.198C395.739 130.998 399.819 124.945 402.779 118.038C405.738 111.136 407.218 103.737 407.218 95.8435C407.218 87.9528 405.738 80.5542 402.779 73.6475C399.819 66.7448 395.739 60.6915 390.538 55.4875C385.334 50.2875 379.282 46.2062 372.378 43.2462C365.473 40.2875 358.074 38.8075 350.183 38.8075ZM350.183 161.757C341.037 161.757 332.469 160.008 324.49 156.51C316.509 153.013 309.558 148.305 303.641 142.386C297.722 136.468 293.014 129.518 289.515 121.536C286.018 113.557 284.27 104.99 284.27 95.8435C284.27 86.6955 286.018 78.1328 289.515 70.1502C293.014 62.1715 297.722 55.2182 303.641 49.2995C309.558 43.3822 316.509 38.6742 324.49 35.1755C332.469 31.6782 341.037 29.9302 350.183 29.9302C359.33 29.9302 367.893 31.6782 375.877 35.1755C383.854 38.6742 390.809 43.3822 396.726 49.2995C402.645 55.2182 407.353 62.1715 410.851 70.1502C414.349 78.1328 416.097 86.6955 416.097 95.8435C416.097 104.99 414.349 113.557 410.851 121.536C407.353 129.518 402.645 136.468 396.726 142.386C390.809 148.305 383.854 153.013 375.877 156.51C367.893 160.008 359.33 161.757 350.183 161.757Z" stroke="#532459" stroke-width="2.66667" stroke-miterlimit="10"/>
<path d="M484.879 30.1987C491.875 30.1987 498.507 31.5441 504.788 34.2347C511.064 36.924 516.491 40.556 521.066 45.1294C525.639 49.704 529.27 55.1307 531.96 61.4067C534.65 67.6867 535.995 74.3201 535.995 81.3147V157.183C535.995 158.62 535.547 159.739 534.65 160.545C533.752 161.353 532.675 161.756 531.422 161.756C528.551 161.756 527.119 160.229 527.119 157.175V81.1387C527.119 75.3881 525.996 69.9481 523.756 64.8241C521.511 59.7041 518.463 55.2574 514.608 51.4814C510.75 47.7067 506.268 44.6974 501.156 42.448C496.046 40.204 490.618 39.076 484.879 39.076C478.96 39.076 473.446 40.0681 468.334 42.0441C463.223 44.0201 458.826 46.8081 455.152 50.4014C451.474 53.9987 448.559 58.312 446.408 63.344C444.256 68.3801 443.088 73.8614 442.911 79.7894V157.175C442.911 160.229 441.472 161.756 438.606 161.756C435.555 161.756 434.032 160.235 434.032 157.183V34.772C434.032 33.5201 434.435 32.4427 435.243 31.5441C436.05 30.6481 437.167 30.1987 438.606 30.1987C439.858 30.1987 440.894 30.6481 441.7 31.5441C442.506 32.4427 442.911 33.5201 442.911 34.772V51.4521C447.571 44.8187 453.492 39.6147 460.666 35.8481C467.839 32.0814 475.91 30.1987 484.879 30.1987Z" fill="#532459"/>
<path d="M484.879 30.1987C491.875 30.1987 498.507 31.5441 504.788 34.2347C511.064 36.9241 516.491 40.556 521.066 45.1294C525.639 49.704 529.27 55.1307 531.96 61.4067C534.65 67.6867 535.995 74.3201 535.995 81.3147V157.183C535.995 158.62 535.547 159.739 534.65 160.545C533.752 161.353 532.675 161.756 531.422 161.756C528.551 161.756 527.119 160.229 527.119 157.175V81.1387C527.119 75.3881 525.996 69.9481 523.756 64.8241C521.511 59.7041 518.463 55.2574 514.608 51.4814C510.75 47.7067 506.268 44.6974 501.156 42.448C496.046 40.204 490.618 39.076 484.879 39.076C478.96 39.076 473.446 40.0681 468.334 42.0441C463.223 44.0201 458.826 46.8081 455.152 50.4014C451.474 53.9987 448.559 58.3121 446.408 63.3441C444.256 68.3801 443.088 73.8614 442.911 79.7894V157.175C442.911 160.229 441.472 161.756 438.606 161.756C435.555 161.756 434.032 160.235 434.032 157.183V34.7721C434.032 33.5201 434.435 32.4427 435.243 31.5441C436.05 30.6481 437.167 30.1987 438.606 30.1987C439.858 30.1987 440.894 30.6481 441.7 31.5441C442.506 32.4427 442.911 33.5201 442.911 34.7721V51.4521C447.571 44.8187 453.492 39.6147 460.666 35.8481C467.839 32.0814 475.91 30.1987 484.879 30.1987Z" stroke="#532459" stroke-width="2.66667" stroke-miterlimit="10"/>
<path d="M562.809 161.757C559.756 161.757 558.236 160.234 558.236 157.182V34.7726C558.236 33.5193 558.639 32.4433 559.447 31.5446C560.253 30.6486 561.372 30.1993 562.809 30.1993C564.061 30.1993 565.095 30.6486 565.903 31.5446C566.711 32.4433 567.113 33.5193 567.113 34.7726V157.182C567.113 160.234 565.677 161.757 562.809 161.757ZM562.809 1.68193C565.319 1.68193 567.383 2.4886 568.997 4.10194C570.611 5.7166 571.419 7.78061 571.419 10.2899C571.419 12.8033 570.611 14.9099 568.997 16.6126C567.383 18.3193 565.319 19.1686 562.809 19.1686C560.296 19.1686 558.189 18.3193 556.487 16.6126C554.78 14.9099 553.931 12.8033 553.931 10.2899C553.931 7.78061 554.78 5.7166 556.487 4.10194C558.189 2.4886 560.296 1.68193 562.809 1.68193Z" fill="#532459"/>
<path d="M562.809 161.757C559.756 161.757 558.236 160.234 558.236 157.182V34.7726C558.236 33.5193 558.639 32.4433 559.447 31.5446C560.253 30.6486 561.372 30.1993 562.809 30.1993C564.061 30.1993 565.095 30.6486 565.903 31.5446C566.711 32.4433 567.113 33.5193 567.113 34.7726V157.182C567.113 160.234 565.677 161.757 562.809 161.757ZM562.809 1.68193C565.319 1.68193 567.383 2.4886 568.997 4.10194C570.611 5.7166 571.419 7.7806 571.419 10.2899C571.419 12.8033 570.611 14.9099 568.997 16.6126C567.383 18.3193 565.319 19.1686 562.809 19.1686C560.296 19.1686 558.189 18.3193 556.487 16.6126C554.78 14.9099 553.931 12.8033 553.931 10.2899C553.931 7.7806 554.78 5.7166 556.487 4.10194C558.189 2.4886 560.296 1.68193 562.809 1.68193Z" stroke="#532459" stroke-width="2.66667" stroke-miterlimit="10"/>
<path d="M652.039 39.0763C645.22 39.0763 638.675 40.4763 632.399 43.2683C626.118 46.063 620.563 49.8923 615.719 54.7603C610.876 59.6283 606.883 65.307 603.748 71.7976C600.607 78.2883 598.77 85.1363 598.232 92.3456H706.114C705.576 85.6776 704.004 79.1416 701.406 72.7443C698.804 66.3456 695.172 60.667 690.511 55.7056C685.846 50.7496 680.287 46.7403 673.83 43.6763C667.374 40.611 660.11 39.0763 652.039 39.0763ZM714.992 96.919C714.992 99.7896 713.554 101.224 710.688 101.224H598.232C598.77 108.58 600.652 115.482 603.88 121.939C607.111 128.396 611.279 134.046 616.392 138.888C621.503 143.731 627.422 147.544 634.147 150.323C640.872 153.104 648.003 154.492 655.536 154.492C665.04 154.492 673.919 152.298 682.171 147.902C690.419 143.508 697.238 137.455 702.618 129.742C704.588 127.588 706.74 127.231 709.074 128.664C709.968 129.384 710.554 130.372 710.822 131.624C711.091 132.88 710.864 133.958 710.15 134.854C703.87 143.823 695.934 150.818 686.34 155.838C676.744 160.86 666.474 163.371 655.536 163.371C646.388 163.371 637.78 161.622 629.708 158.124C621.638 154.627 614.596 149.876 608.588 143.866C602.578 137.859 597.87 130.818 594.464 122.747C591.056 114.675 589.354 106.066 589.354 96.919C589.354 88.1336 590.922 79.7016 594.062 71.6296C597.198 63.559 601.906 56.295 608.186 49.8376C614.104 43.5616 620.872 38.719 628.499 35.311C636.119 31.9056 643.968 30.199 652.039 30.199C660.824 30.199 669.122 31.947 676.924 35.4443C684.726 38.943 691.587 43.919 697.504 50.3763C703.243 56.6563 707.594 63.6936 710.554 71.495C713.512 79.2976 714.992 87.503 714.992 96.1123V96.919Z" fill="#532459"/>
<path d="M652.039 39.0763C645.22 39.0763 638.675 40.4763 632.399 43.2683C626.118 46.063 620.563 49.8923 615.719 54.7603C610.876 59.6283 606.883 65.307 603.748 71.7976C600.607 78.2883 598.77 85.1363 598.232 92.3456H706.114C705.576 85.6776 704.004 79.1416 701.406 72.7443C698.804 66.3456 695.172 60.667 690.511 55.7056C685.846 50.7496 680.287 46.7403 673.83 43.6763C667.374 40.611 660.11 39.0763 652.039 39.0763ZM714.992 96.919C714.992 99.7896 713.554 101.224 710.688 101.224H598.232C598.77 108.58 600.652 115.482 603.88 121.939C607.111 128.396 611.279 134.046 616.392 138.888C621.503 143.731 627.422 147.544 634.147 150.323C640.872 153.104 648.003 154.492 655.536 154.492C665.04 154.492 673.919 152.298 682.171 147.902C690.419 143.508 697.238 137.455 702.618 129.742C704.588 127.588 706.74 127.231 709.074 128.664C709.968 129.384 710.554 130.372 710.822 131.624C711.091 132.88 710.864 133.958 710.15 134.854C703.87 143.823 695.934 150.818 686.34 155.838C676.744 160.86 666.474 163.371 655.536 163.371C646.388 163.371 637.78 161.622 629.708 158.124C621.638 154.627 614.596 149.876 608.588 143.866C602.578 137.859 597.87 130.818 594.464 122.747C591.056 114.675 589.354 106.066 589.354 96.919C589.354 88.1336 590.922 79.7016 594.062 71.6296C597.198 63.559 601.906 56.295 608.186 49.8376C614.104 43.5616 620.872 38.719 628.499 35.311C636.119 31.9056 643.968 30.199 652.039 30.199C660.824 30.199 669.122 31.947 676.924 35.4443C684.726 38.943 691.587 43.919 697.504 50.3763C703.243 56.6563 707.594 63.6936 710.554 71.495C713.512 79.2976 714.992 87.503 714.992 96.1123V96.919Z" stroke="#532459" stroke-width="2.66667" stroke-miterlimit="10"/>
<path d="M781.545 88.0411C786.908 90.5545 792.268 93.0651 797.633 95.5731C802.996 98.0878 807.735 100.954 811.845 104.184C815.956 107.412 819.307 111.042 821.9 115.078C824.489 119.114 825.789 123.822 825.789 129.202C825.789 134.408 824.672 139.249 822.435 143.73C820.199 148.217 817.069 152.164 813.048 155.569C809.02 158.978 804.325 161.621 798.961 163.505C793.597 165.388 787.876 166.33 781.797 166.33C761.587 166.33 745.671 159.334 734.048 145.345C733.149 144.449 732.795 143.42 732.972 142.252C733.149 141.086 733.687 140.057 734.587 139.157C735.483 138.261 736.512 137.904 737.68 138.081C738.845 138.261 739.875 138.8 740.773 139.696C750.636 151.533 764.356 157.452 781.936 157.452C786.779 157.452 791.352 156.737 795.657 155.3C799.961 153.866 803.681 151.894 806.821 149.38C809.959 146.872 812.425 143.912 814.22 140.502C816.012 137.097 816.911 133.42 816.911 129.473C816.911 125.706 815.788 122.254 813.548 119.114C811.304 115.978 808.344 113.061 804.669 110.37C800.991 107.68 796.823 105.217 792.16 102.972C787.493 100.732 782.744 98.5331 777.9 96.3811C772.697 94.0518 767.631 91.6731 762.701 89.2518C757.765 86.8305 753.327 84.1398 749.384 81.1798C745.436 78.2211 742.253 74.9051 739.833 71.2264C737.411 67.5531 736.2 63.3825 736.2 58.7158C736.2 54.7731 737.008 50.8251 738.623 46.8785C740.236 42.9358 742.791 39.3918 746.289 36.2518C749.787 33.1158 754.403 30.5611 760.145 28.5851C765.883 26.6131 772.967 25.6251 781.399 25.6251C782.651 25.6251 784.716 25.7558 787.587 26.0158C790.453 26.2758 793.592 26.8865 797.003 27.8451C800.408 28.8025 803.951 30.2878 807.629 32.2958C811.304 34.3051 814.667 37.1051 817.717 40.6918C818.613 41.5904 819.017 42.6211 818.928 43.7851C818.836 44.9531 818.345 45.9838 817.448 46.8785C816.549 47.7785 815.472 48.1811 814.22 48.0891C812.964 48.0011 811.887 47.5091 810.992 46.6091C807.044 42.1278 802.291 38.9891 796.733 37.1931C791.172 35.4025 786.061 34.5038 781.399 34.5038C770.099 34.5038 761.221 36.6131 754.764 40.8251C748.307 45.0425 745.079 50.9144 745.079 58.4478C745.079 61.6758 746.105 64.6345 748.16 67.3251C750.216 70.0158 752.943 72.5291 756.341 74.8585C759.737 77.1918 763.625 79.4318 768.007 81.5838C772.385 83.7371 776.897 85.8891 781.545 88.0411Z" fill="#532459"/>
</svg>
