<svg width="621" height="241" viewBox="0 0 621 241" fill="none" xmlns="http://www.w3.org/2000/svg">
<path d="M55.4755 178.812C62.9581 178.812 70.0528 177.376 76.7568 174.502C83.4555 171.632 89.3315 167.714 94.3821 162.752C99.4288 157.792 103.39 151.961 106.262 145.258C109.134 138.558 110.571 131.378 110.571 123.716C110.571 116.234 109.134 109.138 106.262 102.436C103.39 95.737 99.4288 89.861 94.3821 84.8103C89.3315 79.7637 83.4555 75.8023 76.7568 72.9303C70.0528 70.057 62.9581 68.6223 55.4755 68.6223C46.2475 68.6223 37.6755 70.7557 29.7555 75.0197C21.8328 79.2863 15.2648 85.161 10.0421 92.6437V154.789C15.2648 162.452 21.8328 168.368 29.7555 172.544C37.6755 176.722 46.2475 178.812 55.4755 178.812ZM55.4755 60.005C64.3541 60.005 72.6648 61.701 80.4128 65.097C88.1555 68.4917 94.9048 73.061 100.649 78.805C106.393 84.549 110.918 91.2983 114.226 99.041C117.53 106.789 119.187 115.014 119.187 123.716C119.187 132.594 117.53 140.909 114.226 148.653C110.918 156.401 106.393 163.145 100.649 168.889C94.9048 174.633 88.1555 179.162 80.4128 182.466C72.6648 185.777 64.3541 187.429 55.4755 187.429C46.7688 187.429 38.5435 185.821 30.8008 182.597C23.0528 179.378 16.1328 174.724 10.0421 168.628V234.429C10.0421 237.388 8.64614 238.868 5.86347 238.868C2.90214 238.868 1.4248 237.388 1.4248 234.429V64.4437C1.4248 61.4863 2.90214 60.005 5.86347 60.005C8.64614 60.005 10.0421 61.4863 10.0421 64.4437V79.0663C16.1328 72.9743 23.0528 68.2757 30.8008 64.965C38.5435 61.661 46.7688 60.005 55.4755 60.005Z" stroke="#532459" stroke-width="2.66667" stroke-miterlimit="10"/>
<path d="M229.566 60.2654C230.782 60.2654 231.827 60.7027 232.699 61.5707C233.569 62.4453 234.006 63.488 234.006 64.7054V183.512C234.006 184.907 233.569 185.992 232.699 186.776C231.827 187.559 230.782 187.951 229.566 187.951C226.779 187.951 225.389 186.473 225.389 183.512V167.584C220.859 173.849 215.115 178.812 208.155 182.467C201.19 186.123 193.271 187.951 184.394 187.951C177.605 187.951 171.207 186.645 165.202 184.035C159.197 181.423 153.974 177.897 149.535 173.459C145.097 169.02 141.571 163.797 138.959 157.792C136.349 151.785 135.043 145.389 135.043 138.599V64.7054C135.043 63.488 135.435 62.4453 136.218 61.5707C137.002 60.7027 138.087 60.2654 139.482 60.2654C140.698 60.2654 141.702 60.7027 142.485 61.5707C143.269 62.4453 143.661 63.488 143.661 64.7054V138.599C143.661 144.173 144.745 149.436 146.925 154.397C149.098 159.359 152.015 163.667 155.671 167.321C159.327 170.979 163.635 173.896 168.597 176.069C173.558 178.249 178.821 179.333 184.394 179.333C190.31 179.333 195.707 178.379 200.582 176.461C205.454 174.548 209.722 171.851 213.377 168.367C217.033 164.888 219.905 160.709 221.994 155.833C224.083 150.961 225.213 145.651 225.389 139.905V64.7054C225.389 63.488 225.781 62.4453 226.563 61.5707C227.347 60.7027 228.346 60.2654 229.566 60.2654Z" fill="#532459"/>
<path d="M229.566 60.2654C230.782 60.2654 231.827 60.7027 232.699 61.5707C233.569 62.4453 234.006 63.488 234.006 64.7054V183.512C234.006 184.907 233.569 185.992 232.699 186.776C231.827 187.559 230.782 187.951 229.566 187.951C226.779 187.951 225.389 186.473 225.389 183.512V167.584C220.859 173.849 215.115 178.812 208.155 182.467C201.19 186.123 193.271 187.951 184.394 187.951C177.605 187.951 171.207 186.645 165.202 184.035C159.197 181.423 153.974 177.897 149.535 173.459C145.097 169.02 141.571 163.797 138.959 157.792C136.349 151.785 135.043 145.389 135.043 138.599V64.7054C135.043 63.488 135.435 62.4453 136.218 61.5707C137.002 60.7027 138.087 60.2654 139.482 60.2654C140.698 60.2654 141.702 60.7027 142.485 61.5707C143.269 62.4453 143.661 63.488 143.661 64.7054V138.599C143.661 144.173 144.745 149.436 146.925 154.397C149.098 159.359 152.015 163.667 155.671 167.321C159.327 170.979 163.635 173.896 168.597 176.069C173.558 178.249 178.821 179.333 184.394 179.333C190.31 179.333 195.707 178.379 200.582 176.461C205.454 174.548 209.722 171.851 213.377 168.367C217.033 164.888 219.905 160.709 221.994 155.833C224.083 150.961 225.213 145.651 225.389 139.905V64.7054C225.389 63.488 225.781 62.4453 226.563 61.5707C227.347 60.7027 228.346 60.2654 229.566 60.2654Z" stroke="#532459" stroke-width="2.66667" stroke-miterlimit="10"/>
<path d="M322.712 66.0963C323.758 66.6029 324.451 67.4136 324.8 68.5243C325.147 69.6336 325.063 70.7096 324.54 71.7549C323.842 72.9749 322.928 73.7576 321.799 74.1043C320.664 74.4563 319.579 74.2803 318.535 73.5829C312.79 70.4496 306.348 68.8829 299.212 68.8829C293.467 68.8829 288.115 69.8469 283.154 71.7643C278.192 73.6816 273.924 76.3856 270.359 79.8749C266.788 83.3656 263.962 87.5069 261.872 92.3056C259.784 97.1029 258.65 102.379 258.479 108.136V183.504C258.479 186.47 257.083 187.951 254.3 187.951C251.339 187.951 249.862 186.474 249.862 183.512V64.4443C249.862 61.4856 251.339 60.0056 254.3 60.0056C257.083 60.0056 258.479 61.4856 258.479 64.4443V80.8949C263.003 74.4563 268.747 69.4043 275.712 65.7496C282.672 62.0949 290.506 60.2656 299.212 60.2656C307.739 60.2656 315.572 62.2123 322.712 66.0963Z" fill="#532459"/>
<path d="M322.712 66.0963C323.758 66.6029 324.451 67.4136 324.8 68.5243C325.147 69.6336 325.063 70.7096 324.54 71.7549C323.842 72.9749 322.928 73.7576 321.799 74.1043C320.664 74.4563 319.579 74.2803 318.535 73.5829C312.79 70.4496 306.348 68.8829 299.212 68.8829C293.467 68.8829 288.115 69.8469 283.154 71.7643C278.192 73.6816 273.924 76.3856 270.359 79.8749C266.788 83.3656 263.962 87.5069 261.872 92.3056C259.784 97.1029 258.65 102.379 258.479 108.136V183.504C258.479 186.47 257.083 187.951 254.3 187.951C251.339 187.951 249.862 186.474 249.862 183.512V64.4443C249.862 61.4856 251.339 60.0056 254.3 60.0056C257.083 60.0056 258.479 61.4856 258.479 64.4443V80.8949C263.003 74.4563 268.747 69.4043 275.712 65.7496C282.672 62.0949 290.506 60.2656 299.212 60.2656C307.739 60.2656 315.572 62.2123 322.712 66.0963Z" stroke="#532459" stroke-width="2.66667" stroke-miterlimit="10"/>
<path d="M394.915 178.812C402.398 178.812 409.494 177.376 416.197 174.502C422.895 171.632 428.771 167.714 433.822 162.752C438.869 157.792 442.83 151.961 445.702 145.258C448.574 138.558 450.011 131.378 450.011 123.716C450.011 116.234 448.574 109.138 445.702 102.436C442.83 95.737 438.869 89.861 433.822 84.8103C428.771 79.7637 422.895 75.8023 416.197 72.9303C409.494 70.057 402.398 68.6223 394.915 68.6223C385.687 68.6223 377.115 70.7557 369.195 75.0197C361.273 79.2863 354.705 85.161 349.482 92.6437V154.789C354.705 162.452 361.273 168.368 369.195 172.544C377.115 176.722 385.687 178.812 394.915 178.812ZM394.915 60.005C403.794 60.005 412.105 61.701 419.853 65.097C427.595 68.4917 434.345 73.061 440.089 78.805C445.833 84.549 450.358 91.2983 453.666 99.041C456.97 106.789 458.627 115.014 458.627 123.716C458.627 132.594 456.97 140.909 453.666 148.653C450.358 156.401 445.833 163.145 440.089 168.889C434.345 174.633 427.595 179.162 419.853 182.466C412.105 185.777 403.794 187.429 394.915 187.429C386.209 187.429 377.983 185.821 370.241 182.597C362.493 179.378 355.573 174.724 349.482 168.628V234.429C349.482 237.388 348.086 238.868 345.303 238.868C342.342 238.868 340.865 237.388 340.865 234.429V64.4437C340.865 61.4863 342.342 60.005 345.303 60.005C348.086 60.005 349.482 61.4863 349.482 64.4437V79.0663C355.573 72.9743 362.493 68.2757 370.241 64.965C377.983 61.661 386.209 60.005 394.915 60.005Z" fill="#532459"/>
<path d="M394.915 178.812C402.398 178.812 409.494 177.376 416.197 174.502C422.895 171.632 428.771 167.714 433.822 162.752C438.869 157.792 442.83 151.961 445.702 145.258C448.574 138.558 450.011 131.378 450.011 123.716C450.011 116.234 448.574 109.138 445.702 102.436C442.83 95.737 438.869 89.861 433.822 84.8103C428.771 79.7637 422.895 75.8023 416.197 72.9303C409.494 70.057 402.398 68.6223 394.915 68.6223C385.687 68.6223 377.115 70.7557 369.195 75.0197C361.273 79.2863 354.705 85.161 349.482 92.6437V154.789C354.705 162.452 361.273 168.368 369.195 172.544C377.115 176.722 385.687 178.812 394.915 178.812ZM394.915 60.005C403.794 60.005 412.105 61.701 419.853 65.097C427.595 68.4917 434.345 73.061 440.089 78.805C445.833 84.549 450.358 91.2983 453.666 99.041C456.97 106.789 458.627 115.014 458.627 123.716C458.627 132.594 456.97 140.909 453.666 148.653C450.358 156.401 445.833 163.145 440.089 168.889C434.345 174.633 427.595 179.162 419.853 182.466C412.105 185.777 403.794 187.429 394.915 187.429C386.209 187.429 377.983 185.821 370.241 182.597C362.493 179.378 355.573 174.724 349.482 168.628V234.429C349.482 237.388 348.086 238.868 345.303 238.868C342.342 238.868 340.865 237.388 340.865 234.429V64.4437C340.865 61.4863 342.342 60.005 345.303 60.005C348.086 60.005 349.482 61.4863 349.482 64.4437V79.0663C355.573 72.9743 362.493 68.2757 370.241 64.965C377.983 61.661 386.209 60.005 394.915 60.005Z" stroke="#532459" stroke-width="2.66667" stroke-miterlimit="10"/>
<path d="M478.922 187.951C475.96 187.951 474.483 186.474 474.483 183.512V5.95494C474.483 3.17229 475.96 1.77628 478.922 1.77628C481.704 1.77628 483.1 3.17229 483.1 5.95494V183.512C483.1 186.474 481.704 187.951 478.922 187.951Z" fill="#532459"/>
<path d="M478.922 187.951C475.96 187.951 474.483 186.474 474.483 183.512V5.95495C474.483 3.17228 475.96 1.77628 478.922 1.77628C481.704 1.77628 483.1 3.17228 483.1 5.95495V183.512C483.1 186.474 481.704 187.951 478.922 187.951Z" stroke="#532459" stroke-width="2.66667" stroke-miterlimit="10"/>
<path d="M559.796 68.8824C553.178 68.8824 546.826 70.2411 540.735 72.9504C534.639 75.6638 529.246 79.3798 524.546 84.1051C519.846 88.8291 515.97 94.3411 512.926 100.641C509.879 106.94 508.095 113.586 507.574 120.584H612.28C611.758 114.113 610.231 107.769 607.711 101.558C605.186 95.3491 601.659 89.8371 597.135 85.0238C592.607 80.2131 587.214 76.3198 580.947 73.3464C574.679 70.3718 567.63 68.8824 559.796 68.8824ZM620.896 125.021C620.896 127.808 619.502 129.2 616.719 129.2H507.574C508.095 136.34 509.923 143.04 513.056 149.305C516.19 155.572 520.238 161.056 525.199 165.756C530.159 170.457 535.904 174.156 542.432 176.853C548.96 179.554 555.879 180.901 563.19 180.901C572.415 180.901 581.032 178.77 589.04 174.502C597.046 170.238 603.663 164.364 608.886 156.877C610.799 154.789 612.887 154.442 615.152 155.833C616.02 156.53 616.588 157.489 616.85 158.706C617.11 159.925 616.89 160.97 616.196 161.84C610.102 170.545 602.398 177.334 593.088 182.206C583.774 187.082 573.807 189.517 563.19 189.517C554.312 189.517 545.956 187.82 538.123 184.425C530.29 181.03 523.456 176.42 517.627 170.585C511.792 164.757 507.223 157.922 503.918 150.089C500.608 142.256 498.956 133.901 498.956 125.021C498.956 116.494 500.478 108.312 503.526 100.478C506.57 92.6438 511.139 85.5944 517.235 79.3264C522.979 73.2358 529.547 68.5358 536.948 65.2278C544.346 61.9224 551.963 60.2651 559.796 60.2651C568.323 60.2651 576.376 61.9638 583.95 65.3584C591.52 68.7518 598.179 73.5824 603.924 79.8491C609.492 85.9451 613.715 92.7758 616.588 100.346C619.46 107.918 620.896 115.882 620.896 124.238V125.021Z" fill="#532459"/>
</svg>
