<svg width="197" height="115" viewBox="0 0 197 115" fill="none" xmlns="http://www.w3.org/2000/svg">
<path d="M15.1224 32.4746C17.5238 26.7986 19.5704 22.2946 21.2638 18.9613C22.9571 15.632 23.8571 13.8586 23.9678 13.6386C24.2958 13.0933 24.5131 12.7653 24.6224 12.656C24.7304 12.548 24.8931 12.4386 25.1144 12.328L26.5891 11.836C27.1331 11.6186 27.7064 11.4546 28.3091 11.3453C28.9064 11.2373 29.5904 11.1813 30.3558 11.1813C31.1184 11.1813 31.9371 11.32 32.8131 11.5906C33.6851 11.864 34.4504 12.2746 35.1051 12.82C35.7611 13.3666 36.1704 14.076 36.3331 14.948C36.4971 15.824 36.1958 16.8066 35.4331 17.8973C34.8851 18.552 33.8491 20.1653 32.3198 22.7293C30.7904 25.296 29.0451 28.4906 27.0798 32.3106C34.5038 32.3106 41.9278 32.4746 49.3558 32.8026C50.0104 32.8026 50.5558 32.8586 50.9931 32.9666C52.0838 33.1866 52.5224 33.568 52.3038 34.1133C51.9771 35.096 51.2398 35.808 50.0931 36.2426C48.9464 36.68 47.6611 37.0066 46.2438 37.2253C44.8224 37.4453 43.4024 37.5533 41.9838 37.5533H38.7091C33.9024 37.7733 29.1518 37.7733 24.4584 37.5533C22.4931 41.704 20.5278 46.2613 18.5624 51.2293C16.5958 56.2 14.8758 61.36 13.4024 66.708C11.9278 72.06 10.7811 77.5186 9.96243 83.088C9.14376 88.6573 8.95176 94.0613 9.3891 99.304C9.60643 100.835 9.77043 102.144 9.8811 103.235C9.98776 104.325 10.1518 105.308 10.3718 106.183C10.7011 103.997 11.2731 101.597 12.0931 98.976C12.9118 96.356 13.7838 93.7626 14.7131 91.196C15.6398 88.632 16.5958 86.1746 17.5798 83.8253C18.5624 81.4773 19.3811 79.54 20.0371 78.0106C22.2184 73.424 24.0758 70.4746 25.6051 69.1653C27.1331 67.8546 28.2798 67.3093 29.0451 67.528C29.3731 67.6373 29.5371 67.8546 29.5371 68.1826C29.5371 68.5093 29.4811 68.8373 29.3731 69.1653C29.2624 69.6026 29.0984 70.0946 28.8811 70.64C26.1504 76.1013 23.9118 80.9333 22.1651 85.136C20.4184 89.34 19.0251 92.944 17.9878 95.9466C16.9491 98.9506 16.1878 101.461 15.6958 103.48C15.2051 105.5 14.8491 107.056 14.6318 108.148C14.4118 109.459 14.0838 110.605 13.6491 111.588C13.2104 112.461 12.6371 113.225 11.9278 113.881C11.2171 114.536 10.2078 114.753 8.89843 114.536C7.47843 114.209 6.2771 113.555 5.29443 112.571C4.3131 111.588 3.51843 110.413 2.91976 109.049C2.31976 107.683 1.85576 106.155 1.52776 104.463C1.19976 102.772 0.98243 101.052 0.871764 99.304C0.543764 95.2653 0.707763 90.7866 1.36376 85.872C2.01843 76.92 3.4931 68.264 5.78643 59.9106C8.07976 51.5573 10.5371 43.9973 13.1558 37.2253C10.7544 37.2253 8.07976 37.0613 5.13176 36.7333C4.36643 36.7333 3.54643 36.544 2.67443 36.16C1.8011 35.78 1.47443 35.152 1.69176 34.2773C1.69176 33.8413 1.88243 33.5146 2.26376 33.2933C2.64643 33.076 3.1091 32.9133 3.65576 32.8026C4.20243 32.696 4.80376 32.6386 5.45843 32.6386C6.4411 32.5306 7.39576 32.4746 8.3251 32.4746H11.0278H12.8291C13.3744 32.4746 13.8371 32.5026 14.2211 32.5573C14.6024 32.6133 14.9024 32.5853 15.1224 32.4746Z" fill="#EB8400"/>
<path d="M70.6485 67.6907C70.9765 67.8013 71.1658 68.0187 71.2218 68.3467C71.2765 68.6733 71.2471 69.0013 71.1391 69.3293C71.0298 69.7667 70.8658 70.2573 70.6485 70.8027C65.5138 80.524 62.0498 88.412 60.2471 94.4707C58.4458 100.532 57.3818 104.709 57.0538 107.001C56.8338 108.312 56.5058 109.459 56.0698 110.441C55.6325 111.315 55.0311 112.052 54.2685 112.653C53.5045 113.252 52.4671 113.444 51.1565 113.225C49.7351 113.005 48.5618 112.433 47.6351 111.507C46.7058 110.577 45.9151 109.403 45.2605 107.985C44.6058 106.564 44.1138 105.008 43.7871 103.316C43.4578 101.625 43.2378 99.9053 43.1298 98.1573C42.8031 94.1187 42.9098 89.5853 43.4578 84.5613C44.0045 78.6653 44.9858 72.7427 46.4058 66.7907C47.8245 60.84 49.4618 55.024 51.3205 49.3453C50.9938 49.7827 50.1991 50.9587 48.9458 52.8667C47.6885 54.7787 46.1858 57.3467 44.4418 60.5653C42.6925 63.788 40.7818 67.5267 38.7085 71.7853C36.6325 76.044 34.6671 80.7947 32.8111 86.036C32.3738 86.912 31.9365 87.6733 31.5018 88.3293C31.0645 88.8773 30.5178 89.4213 29.8631 89.968C29.2085 90.5147 28.3898 90.732 27.4058 90.6227C26.2031 90.6227 25.2778 90.2693 24.6218 89.5573C23.9658 88.8493 23.5285 88.0573 23.3111 87.1827C22.8738 86.2 22.7098 85.0533 22.8205 83.7427C22.6031 81.1227 22.6031 78.7747 22.8205 76.7C22.8205 75.4987 22.8738 74.4067 22.9845 73.424C24.0738 63.596 25.8765 54.452 28.3898 45.988C30.8991 37.5267 33.4658 30.156 36.0871 23.876C38.7085 17.5973 41.0271 12.6307 43.0485 8.96935C45.0671 5.31335 46.1325 3.37601 46.2418 3.15601C46.4605 2.82801 46.7338 2.55602 47.0618 2.33601C47.2805 2.22935 47.4431 2.11868 47.5538 2.00935L49.0271 1.51735C49.5725 1.30002 50.1458 1.13602 50.7471 1.02534C51.3458 0.918678 52.0298 0.862686 52.7938 0.862686C53.5578 0.862686 54.3765 1.00002 55.2511 1.27202C56.1231 1.54536 56.8898 1.95468 57.5445 2.50002C58.2005 3.04802 58.5805 3.75735 58.6911 4.62935C58.7978 5.50535 58.4711 6.48801 57.7085 7.57868C57.2711 8.23335 56.3698 9.65335 55.0071 11.836C53.6391 14.0227 52.0578 16.8067 50.2551 20.1907C48.4538 23.576 46.5418 27.4253 44.5231 31.7373C42.5018 36.052 40.5925 40.6387 38.7898 45.496C36.9885 50.3573 35.3765 55.4347 33.9578 60.7293C32.5378 66.0267 31.6085 71.2947 31.1738 76.536C31.6085 75.4453 32.3205 73.808 33.3031 71.6227C34.2858 69.4387 35.4031 67.036 36.6605 64.4147C37.9151 61.7947 39.2818 59.148 40.7551 56.4707C42.2311 53.796 43.7578 51.368 45.3431 49.1827C46.9231 46.9987 48.5365 45.2507 50.1751 43.9413C51.8125 42.6307 53.3405 42.0307 54.7605 42.1387C56.5058 42.248 57.8725 42.8507 58.8551 43.9413C59.7285 44.816 60.2738 46.2333 60.4938 48.1987C60.7111 50.164 60.2191 52.896 59.0191 56.3893C56.6165 63.488 54.6778 70.6387 53.2045 77.8467C51.7311 85.0533 51.2645 91.8253 51.8125 98.1573C52.0298 99.688 52.1925 100.969 52.3031 102.005C52.4098 103.045 52.5738 103.997 52.7938 104.872C53.1218 102.689 53.6951 100.287 54.5138 97.6653C55.3338 95.0453 56.2058 92.452 57.1351 89.8853C58.0618 87.3213 59.0191 84.8893 60.0018 82.596C60.9845 80.3027 61.8565 78.3373 62.6218 76.7C63.6058 74.5173 64.5071 72.7973 65.3258 71.54C66.1445 70.2853 66.8818 69.3573 67.5365 68.756C68.1911 68.1573 68.7898 67.8013 69.3391 67.6907C69.8831 67.5827 70.3205 67.5827 70.6485 67.6907Z" fill="#EB8400"/>
<path d="M92.2669 87.3464C93.4669 86.1464 94.6149 84.9184 95.7069 83.661C96.7962 82.4064 97.7269 81.1784 98.4922 79.9757C99.3642 78.665 100.13 77.3544 100.786 76.0437C101.44 74.845 101.931 73.9157 102.259 73.2597C102.586 72.605 103.022 71.733 103.57 70.6397C103.46 70.6397 103.35 70.6677 103.242 70.721C103.131 70.777 103.022 70.8037 102.914 70.8037C102.694 70.913 102.259 71.077 101.604 71.2944C101.384 71.4037 101.194 71.4864 101.03 71.541C100.867 71.5957 100.675 71.6784 100.458 71.7864C98.9269 72.2237 97.2349 72.8784 95.3789 73.7517C95.1589 73.861 94.7242 74.025 94.0695 74.2424C93.9602 74.353 93.8495 74.4064 93.7402 74.4064C93.6309 74.4064 93.5202 74.4624 93.4135 74.5704C93.1935 74.6797 93.0589 74.7344 93.0042 74.7344C92.9482 74.7344 92.8122 74.7904 92.5949 74.8984C92.3749 75.0077 92.1282 75.1184 91.8575 75.2264C91.5842 75.3357 91.3389 75.4464 91.1215 75.553C90.9015 75.773 90.6549 75.909 90.3842 75.9624C90.1095 76.0184 89.8095 76.1544 89.4829 76.373L88.6642 76.6997L87.6815 77.1917C87.3522 77.4117 87.0522 77.5744 86.7802 77.6824C86.5069 77.7917 86.2069 77.957 85.8789 78.1744C85.2242 78.501 84.4055 78.9397 83.4215 79.485C82.4402 80.0317 81.5109 80.577 80.6375 81.1224C79.6549 81.6704 78.7535 82.2144 77.9349 82.761C77.1162 83.3077 76.4322 83.7424 75.8882 84.0704C75.6682 84.1797 75.4509 84.317 75.2335 84.4797C75.0135 84.6437 74.7402 84.8357 74.4135 85.053C74.6309 86.4744 74.9869 87.593 75.4775 88.4117C75.9695 89.2304 76.4869 89.8597 77.0335 90.2944C77.5789 90.8424 78.1815 91.2237 78.8362 91.441C81.3469 92.2064 83.7495 92.125 86.0429 91.1957C88.3362 90.269 90.4082 88.985 92.2669 87.3464ZM75.3962 70.9664C74.8495 72.825 74.4962 74.545 74.3322 76.1264C74.1682 77.7104 74.0855 79.1024 74.0855 80.3037C76.5962 78.3384 78.6722 76.1544 80.3095 73.7517C81.9482 71.3504 83.3122 69.1117 84.4055 67.0357C84.6229 66.4904 84.8975 65.917 85.2242 65.3157C85.5522 64.717 85.8229 64.1437 86.0429 63.597C86.3709 63.0504 86.5882 62.449 86.6975 61.7944C87.2429 60.3757 87.6815 58.9277 88.0095 57.4544C88.3362 55.9797 88.5002 54.7517 88.5002 53.7677C88.5002 52.7864 88.2802 52.105 87.8455 51.721C87.4069 51.3397 86.6415 51.5317 85.5522 52.2944C84.0202 53.277 82.7109 54.5624 81.6215 56.1437C80.5269 57.7277 79.5722 59.3944 78.7535 61.1397C77.9349 62.8877 77.2509 64.6357 76.7069 66.381C76.1589 68.129 75.7242 69.6557 75.3962 70.9664ZM196.442 74.2424V74.5704V74.8984L196.278 75.0624V75.2264C196.278 75.4464 196.222 75.6637 196.114 75.881V76.2077C196.004 76.2077 195.951 76.3184 195.951 76.5357C195.84 76.7557 195.704 77.0024 195.54 77.273C195.376 77.5464 195.184 77.7917 194.967 78.0104C194.856 78.2304 194.583 78.5584 194.148 78.993C194.038 79.213 193.928 79.3477 193.82 79.4024C193.711 79.4584 193.6 79.541 193.494 79.6477L193.166 79.9757C193.056 80.0864 192.974 80.1397 192.919 80.1397C192.863 80.1397 192.782 80.1957 192.675 80.3037C191.363 81.1784 190.107 81.941 188.906 82.5957C187.596 83.1437 186.422 83.5797 185.386 83.9064C184.347 84.2344 183.936 84.345 184.156 84.2344C184.264 84.1264 184.62 83.989 185.222 83.825C185.82 83.661 186.558 83.361 187.432 82.9237C187.867 82.7064 188.334 82.461 188.826 82.1864C189.316 81.9157 189.834 81.6144 190.382 81.2864C190.926 80.8504 191.471 80.441 192.019 80.057C192.564 79.677 193.11 79.213 193.656 78.665C193.875 78.3384 194.092 78.0384 194.312 77.7637C194.53 77.493 194.747 77.1917 194.967 76.8637C195.184 76.5357 195.32 76.1824 195.376 75.7984C195.431 75.417 195.512 75.0624 195.623 74.7344C195.623 74.0784 195.512 73.317 195.295 72.441C195.074 72.0064 194.639 71.3504 193.984 70.4757C193.764 70.1477 193.494 69.8477 193.166 69.5744C192.838 69.3037 192.564 69.0584 192.347 68.837C191.908 68.6197 191.58 68.4024 191.363 68.1824C191.254 68.1824 191.09 68.0744 190.872 67.8544C190.762 67.8544 190.682 67.829 190.627 67.773C190.571 67.7197 190.488 67.6904 190.382 67.6904C189.071 66.929 187.76 66.273 186.45 65.725C184.919 65.1797 183.392 64.717 181.863 64.333C180.334 63.9517 178.804 63.597 177.278 63.2677C176.512 63.0504 175.747 62.9157 174.984 62.8584C174.219 62.805 173.4 62.7237 172.527 62.613C171.762 62.5064 170.998 62.4237 170.235 62.3677C169.468 62.3144 168.703 62.2317 167.942 62.1224C164.992 61.9037 162.016 61.769 159.015 61.7117C156.01 61.6584 153.035 61.741 150.087 61.9584C148.558 62.069 147.082 62.1784 145.666 62.2864C144.244 62.3957 142.77 62.5064 141.242 62.613L139.114 62.941L136.82 63.105L134.69 63.4317L132.398 63.7597C130.65 63.9797 128.93 64.2517 127.239 64.5784C125.543 64.9064 123.824 65.2344 122.078 65.5624C121.203 65.7824 120.331 65.9717 119.458 66.1344C118.582 66.2984 117.71 66.4904 116.838 66.7077L115.526 67.0357C115.088 67.2557 114.651 67.3637 114.216 67.3637L111.759 68.1824H111.268C111.158 68.2917 110.994 68.3464 110.776 68.3464C110.667 68.457 110.556 68.5104 110.45 68.5104C110.339 68.5104 110.175 68.5664 109.958 68.6744C109.738 68.7837 109.491 68.837 109.22 68.837C108.947 68.837 108.7 68.8944 108.483 69.001C108.263 69.877 107.963 70.885 107.582 72.0317C107.198 73.1784 106.682 74.4624 106.026 75.881C105.371 77.4117 104.496 79.049 103.406 80.7944C102.53 82.325 101.411 83.9624 100.048 85.7077C98.6815 87.457 97.0722 89.149 95.2162 90.7864C92.3749 93.2997 89.4549 95.045 86.4535 96.0277C83.4482 97.0104 80.5815 96.957 77.8522 95.8637C72.2842 93.5704 68.3789 90.3504 66.1415 86.1997C63.9029 82.0517 63.2762 76.7557 64.2575 70.3117C65.0202 66.381 66.2775 62.833 68.0255 59.665C69.5535 56.937 71.6282 54.3984 74.2495 52.0477C76.8709 49.7024 80.3642 48.3637 84.7335 48.0357C86.3709 47.9277 87.7895 48.0917 88.9909 48.5264C90.0815 48.8544 91.0389 49.5104 91.8575 50.4917C92.6775 51.4757 93.1402 52.8957 93.2495 54.7517C93.2495 55.9544 93.1122 57.429 92.8415 59.1744C92.5669 60.9224 91.9935 62.941 91.1215 65.2344C90.6842 66.217 90.3015 67.1464 89.9735 68.0184C89.6469 68.8944 89.2629 69.713 88.8282 70.4757C87.1895 73.5344 85.3882 76.101 83.4215 78.1744C83.6389 77.957 83.8575 77.821 84.0775 77.7637C84.2949 77.7104 84.5135 77.5744 84.7335 77.3544C85.2775 77.137 85.7962 76.8917 86.2895 76.6184C86.7802 76.3464 87.2962 76.101 87.8455 75.881C88.0629 75.6637 88.3362 75.5277 88.6642 75.4717C88.9909 75.417 89.2629 75.2824 89.4829 75.0624C89.9175 74.845 90.1909 74.6797 90.3015 74.5704C90.5189 74.5704 90.8469 74.4624 91.2855 74.2424C92.4842 73.6984 93.6842 73.1784 94.8882 72.6864C96.0882 72.1957 97.2895 71.6784 98.4922 71.1304L100.458 70.4757C100.892 70.2584 101.167 70.1477 101.276 70.1477L102.259 69.8197L104.062 69.165C104.168 69.165 104.224 69.1397 104.224 69.0837C104.224 69.029 104.279 69.001 104.388 69.001C104.823 67.9104 105.315 66.8184 105.862 65.725C106.079 65.3984 106.296 65.0157 106.518 64.5784C106.736 64.361 106.954 64.1157 107.174 63.8424C107.391 63.5704 107.664 63.5424 107.992 63.7597C108.864 64.197 109.138 65.5077 108.811 67.6904C112.96 66.381 117.19 65.2624 121.506 64.333C125.818 63.4064 130.158 62.6704 134.526 62.1224C137.692 61.6864 140.776 61.3597 143.782 61.1397C146.783 60.9224 149.867 60.7037 153.035 60.4837H158.278C160.022 60.4837 161.771 60.541 163.518 60.6477C165.374 60.7584 167.147 60.8677 168.843 60.9757C170.534 61.085 172.307 61.3024 174.166 61.6304C175.148 61.741 176.13 61.9037 177.114 62.1224C178.096 62.3424 179.132 62.5597 180.226 62.777C180.771 62.8877 181.262 62.997 181.699 63.105C182.135 63.2144 182.627 63.3784 183.175 63.597C183.719 63.817 184.211 63.9797 184.648 64.0877C185.083 64.197 185.574 64.361 186.123 64.5784C186.34 64.5784 186.475 64.6064 186.531 64.661C186.586 64.717 186.722 64.7424 186.942 64.7424L187.596 65.0704C187.924 65.2904 188.415 65.5077 189.071 65.725C189.506 65.945 189.943 66.1917 190.382 66.4624C190.816 66.7357 191.254 67.0357 191.691 67.3637C192.675 67.9104 193.494 68.5664 194.148 69.329C195.131 70.3117 195.731 71.241 195.951 72.113C196.278 72.769 196.442 73.317 196.442 73.7517V74.2424Z" fill="#EB8400"/>
</svg>
